<svg width="510" height="510" viewBox="0 0 510 510" fill="none" xmlns="http://www.w3.org/2000/svg">
<g clip-path="url(#clip0_179_85)">
<path d="M454.41 426.054C454.41 426.054 520.71 317.73 500.31 194.616C479.808 71.604 380.46 82.212 312.834 63.036C245.208 43.86 209.304 7.34399 131.274 33.252C53.142 59.16 24.174 103.53 17.646 171.258C11.016 238.884 17.952 303.246 30.498 363.936C43.044 424.626 64.362 468.894 122.298 473.382C180.234 477.87 199.512 459.306 232.866 476.952C266.118 494.598 395.556 514.386 454.41 426.054Z" fill="#754DCE"/>
<path opacity="0.7" d="M454.41 426.054C454.41 426.054 520.71 317.73 500.31 194.616C479.808 71.604 380.46 82.212 312.834 63.036C245.208 43.86 209.304 7.34399 131.274 33.252C53.142 59.16 24.174 103.53 17.646 171.258C11.016 238.884 17.952 303.246 30.498 363.936C43.044 424.626 64.362 468.894 122.298 473.382C180.234 477.87 199.512 459.306 232.866 476.952C266.118 494.598 395.556 514.386 454.41 426.054Z" fill="white"/>
<path d="M213.588 116.076L218.586 128.826" stroke="#263238" stroke-width="2" stroke-miterlimit="10"/>
<path d="M188.802 52.632L210.324 107.712" stroke="#263238" stroke-width="2" stroke-miterlimit="10"/>
<path d="M360.468 59.466L307.02 134.232" stroke="#263238" stroke-width="2" stroke-miterlimit="10"/>
<path d="M380.358 151.98L353.532 172.38" stroke="#263238" stroke-width="2" stroke-miterlimit="10"/>
<path d="M388.62 145.656L384.438 148.92" stroke="#263238" stroke-width="2" stroke-miterlimit="10"/>
<path d="M117.81 153.306L150.654 180.03" stroke="#263238" stroke-width="2" stroke-miterlimit="10"/>
<path d="M136.272 373.626L99.654 407.898" stroke="#263238" stroke-width="2" stroke-miterlimit="10"/>
<path d="M158.406 454.308L142.29 485.112" stroke="#263238" stroke-width="2" stroke-miterlimit="10"/>
<path d="M175.848 421.056L162.18 447.066" stroke="#263238" stroke-width="2" stroke-miterlimit="10"/>
<path d="M280.296 427.176L282.642 482.868" stroke="#263238" stroke-width="2" stroke-miterlimit="10"/>
<path d="M408.714 464.406L416.16 476.034" stroke="#263238" stroke-width="2" stroke-miterlimit="10"/>
<path d="M366.486 398.208L403.41 456.042" stroke="#263238" stroke-width="2" stroke-miterlimit="10"/>
<path d="M415.344 121.686V115.872C411.06 115.668 407.898 114.342 405.756 111.792C403.614 109.242 402.492 105.366 402.39 100.266L411.162 98.736C411.264 100.776 411.468 102.51 411.774 103.938C412.08 105.366 412.692 106.386 413.406 106.998C414.12 107.712 415.038 108.018 416.16 108.018C417.486 108.018 418.302 107.61 418.812 106.794C419.322 105.978 419.526 105.06 419.526 103.938C419.526 101.796 419.016 100.062 418.098 98.634C417.078 97.206 415.752 95.778 414.12 94.35L408.816 89.862C407.592 88.74 406.572 87.618 405.552 86.496C404.634 85.374 403.818 84.048 403.308 82.518C402.798 80.988 402.492 79.254 402.492 77.214C402.492 73.338 403.614 70.278 405.858 68.136C408.102 65.994 411.06 64.77 414.732 64.464V58.956H417.69V64.464C419.934 64.566 421.77 65.076 423.198 65.994C424.626 66.912 425.748 68.034 426.462 69.36C427.176 70.686 427.788 72.216 428.094 73.746C428.4 75.378 428.604 76.908 428.706 78.336L419.832 79.662C419.832 78.132 419.628 76.806 419.424 75.582C419.22 74.358 418.812 73.44 418.302 72.828C417.792 72.216 416.976 71.808 415.854 71.91C414.732 71.91 413.814 72.42 413.202 73.236C412.59 74.154 412.284 75.072 412.284 76.194C412.284 78.132 412.692 79.662 413.61 80.784C414.528 81.906 415.548 83.028 416.67 84.15L421.872 88.638C423.198 89.862 424.524 91.188 425.646 92.718C426.768 94.146 427.686 95.778 428.4 97.512C429.114 99.246 429.42 101.286 429.42 103.53C429.42 105.774 429.012 107.712 428.094 109.548C427.176 111.384 425.952 112.812 424.218 113.934C422.586 115.056 420.546 115.668 418.302 115.872V121.686H415.344Z" stroke="#263238" stroke-miterlimit="10"/>
<path d="M454.818 116.688C459.918 109.14 462.876 100.062 462.876 90.27C462.876 64.26 441.762 43.044 415.65 43.044C389.64 43.044 368.424 64.158 368.424 90.27C368.424 116.28 389.538 137.496 415.65 137.496C429.624 137.496 442.17 131.478 450.84 121.788" stroke="#263238" stroke-miterlimit="10"/>
<path d="M380.154 72.726C377.502 78.03 376.074 83.946 376.074 90.27C376.074 112.2 393.822 129.948 415.752 129.948C437.682 129.948 455.43 112.2 455.43 90.27C455.43 68.34 437.682 50.592 415.752 50.592C404.022 50.592 393.516 55.692 386.274 63.75" stroke="#263238" stroke-miterlimit="10"/>
<path d="M302.328 79.05V75.072C299.37 74.97 297.228 74.052 295.8 72.216C294.372 70.482 293.556 67.83 293.454 64.362L299.472 63.342C299.574 64.77 299.676 65.994 299.88 66.912C300.084 67.83 300.492 68.544 301.002 69.054C301.512 69.564 302.124 69.768 302.838 69.768C303.756 69.768 304.368 69.462 304.674 68.952C304.98 68.34 305.184 67.728 305.184 67.014C305.184 65.586 304.878 64.362 304.164 63.342C303.45 62.322 302.532 61.404 301.41 60.384L297.738 57.222C296.922 56.406 296.208 55.692 295.494 54.876C294.882 54.06 294.27 53.142 293.964 52.122C293.556 51.102 293.352 49.878 293.352 48.45C293.352 45.798 294.066 43.656 295.596 42.228C297.126 40.698 299.166 39.882 301.716 39.678V35.904H303.756V39.678C305.286 39.78 306.51 40.086 307.53 40.698C308.55 41.31 309.264 42.126 309.774 43.044C310.284 43.962 310.692 44.982 310.896 46.104C311.1 47.226 311.304 48.246 311.304 49.266L305.184 50.184C305.184 49.164 305.082 48.246 304.878 47.43C304.776 46.614 304.47 46.002 304.062 45.492C303.654 45.084 303.144 44.778 302.328 44.88C301.512 44.88 300.9 45.186 300.492 45.798C300.084 46.41 299.88 47.022 299.88 47.838C299.88 49.164 300.186 50.184 300.798 51C301.41 51.816 302.124 52.53 302.94 53.346L306.51 56.406C307.428 57.222 308.346 58.14 309.162 59.16C309.978 60.18 310.59 61.302 311.1 62.424C311.61 63.648 311.814 64.974 311.814 66.606C311.814 68.136 311.508 69.462 310.896 70.686C310.284 71.91 309.366 72.93 308.244 73.644C307.122 74.46 305.694 74.868 304.164 74.97V78.948H302.328V79.05Z" stroke="#263238" stroke-miterlimit="10"/>
<path d="M329.46 75.582C332.928 70.38 334.968 64.158 334.968 57.426C334.968 39.474 320.484 24.99 302.532 24.99C284.58 24.99 270.096 39.474 270.096 57.426C270.096 75.378 284.58 89.862 302.532 89.862C312.12 89.862 320.79 85.68 326.706 79.05" stroke="#263238" stroke-miterlimit="10"/>
<path d="M278.052 45.39C276.216 49.062 275.196 53.142 275.196 57.426C275.196 72.522 287.436 84.66 302.43 84.66C317.526 84.66 329.664 72.42 329.664 57.426C329.664 42.33 317.424 30.192 302.43 30.192C294.372 30.192 287.13 33.66 282.132 39.168" stroke="#263238" stroke-miterlimit="10"/>
<path d="M442.68 440.946V436.968C439.722 436.866 437.58 435.948 436.152 434.112C434.724 432.378 433.908 429.726 433.806 426.258L439.824 425.238C439.926 426.666 440.028 427.89 440.232 428.808C440.436 429.726 440.844 430.44 441.354 430.95C441.864 431.46 442.476 431.664 443.19 431.664C444.108 431.664 444.72 431.358 445.026 430.848C445.332 430.236 445.536 429.624 445.536 428.91C445.536 427.482 445.23 426.258 444.516 425.238C443.802 424.218 442.884 423.3 441.762 422.28L438.09 419.118C437.274 418.302 436.56 417.588 435.846 416.772C435.234 415.956 434.622 415.038 434.316 414.018C433.908 412.998 433.704 411.774 433.704 410.346C433.704 407.694 434.418 405.552 435.948 404.124C437.478 402.594 439.518 401.778 442.068 401.574V397.8H444.108V401.574C445.638 401.676 446.862 401.982 447.882 402.594C448.902 403.206 449.616 404.022 450.126 404.94C450.636 405.858 451.044 406.878 451.248 408C451.452 409.122 451.656 410.142 451.656 411.162L445.536 412.08C445.536 411.06 445.434 410.142 445.23 409.326C445.128 408.51 444.822 407.898 444.414 407.388C444.006 406.98 443.496 406.674 442.68 406.776C441.864 406.776 441.252 407.082 440.844 407.694C440.436 408.306 440.232 408.918 440.232 409.734C440.232 411.06 440.538 412.08 441.15 412.896C441.762 413.712 442.476 414.426 443.292 415.242L446.862 418.302C447.78 419.118 448.698 420.036 449.514 421.056C450.33 422.076 450.942 423.198 451.452 424.32C451.962 425.544 452.166 426.87 452.166 428.502C452.166 430.032 451.86 431.358 451.248 432.582C450.636 433.806 449.718 434.826 448.596 435.54C447.474 436.356 446.046 436.764 444.516 436.866V440.844H442.68V440.946Z" stroke="#263238" stroke-miterlimit="10"/>
<path d="M469.812 437.58C473.28 432.378 475.32 426.156 475.32 419.424C475.32 401.472 460.836 386.988 442.884 386.988C424.932 386.988 410.448 401.472 410.448 419.424C410.448 437.376 424.932 451.86 442.884 451.86C452.472 451.86 461.142 447.678 467.058 441.048" stroke="#263238" stroke-miterlimit="10"/>
<path d="M418.506 407.286C416.67 410.958 415.65 415.038 415.65 419.322C415.65 434.418 427.89 446.556 442.884 446.556C457.98 446.556 470.118 434.316 470.118 419.322C470.118 404.226 457.878 392.088 442.884 392.088C434.826 392.088 427.584 395.556 422.586 401.064" stroke="#263238" stroke-miterlimit="10"/>
<path d="M348.33 480.93V478.584C346.596 478.482 345.27 477.972 344.352 476.85C343.434 475.83 343.026 474.198 342.924 472.056L346.494 471.444C346.494 472.26 346.596 472.974 346.8 473.586C346.902 474.198 347.208 474.606 347.412 474.912C347.718 475.218 348.126 475.32 348.534 475.32C349.044 475.32 349.452 475.116 349.656 474.81C349.86 474.504 349.962 474.096 349.962 473.586C349.962 472.668 349.758 471.954 349.35 471.342C348.942 470.73 348.432 470.118 347.718 469.608L345.576 467.772C345.066 467.262 344.658 466.854 344.25 466.344C343.842 465.834 343.536 465.324 343.332 464.712C343.128 464.1 343.026 463.386 343.026 462.57C343.026 460.938 343.434 459.714 344.352 458.796C345.27 457.878 346.494 457.368 348.024 457.266V455.022H349.248V457.266C350.166 457.368 350.88 457.572 351.492 457.878C352.104 458.286 352.512 458.694 352.818 459.306C353.124 459.816 353.328 460.428 353.532 461.142C353.634 461.754 353.736 462.468 353.838 463.08L350.166 463.59C350.166 462.978 350.064 462.366 349.962 461.958C349.86 461.448 349.758 461.04 349.452 460.836C349.248 460.53 348.84 460.428 348.432 460.428C347.922 460.428 347.616 460.632 347.31 461.04C347.106 461.448 346.902 461.754 346.902 462.264C346.902 463.08 347.106 463.692 347.514 464.202C347.922 464.712 348.33 465.12 348.84 465.63L350.982 467.466C351.594 467.976 352.104 468.486 352.512 469.098C353.022 469.71 353.328 470.322 353.634 471.138C353.94 471.852 354.042 472.668 354.042 473.688C354.042 474.606 353.838 475.422 353.532 476.136C353.124 476.85 352.614 477.462 351.9 477.972C351.186 478.482 350.37 478.686 349.452 478.788V481.236H348.33V480.93Z" stroke="#263238" stroke-miterlimit="10"/>
<path d="M364.65 478.89C366.792 475.728 368.016 472.056 368.016 467.976C368.016 457.164 359.244 448.494 348.534 448.494C337.824 448.494 329.052 457.266 329.052 467.976C329.052 478.788 337.824 487.458 348.534 487.458C354.348 487.458 359.448 484.908 363.018 480.93" stroke="#263238" stroke-miterlimit="10"/>
<path d="M333.744 460.734C332.622 462.876 332.01 465.426 332.01 467.976C332.01 477.054 339.354 484.398 348.432 484.398C357.51 484.398 364.854 477.054 364.854 467.976C364.854 458.898 357.51 451.554 348.432 451.554C343.638 451.554 339.252 453.696 336.192 456.96" stroke="#263238" stroke-miterlimit="10"/>
<path d="M108.324 40.29C103.836 43.452 100.164 47.736 97.92 53.04C94.35 60.996 94.452 69.462 97.206 76.908C99.756 83.64 99.858 91.086 97.512 97.818L96.084 101.898L128.01 113.016L129.438 108.936C131.784 102.102 136.476 96.39 142.596 92.718C143.208 92.31 143.82 91.902 144.432 91.494" stroke="#263238" stroke-miterlimit="10" stroke-linecap="round"/>
<path d="M149.226 87.312C152.184 84.15 154.53 80.376 156.06 76.092C161.976 59.058 152.286 40.392 134.64 35.598C126.888 33.456 118.728 34.578 111.996 38.148" stroke="#263238" stroke-miterlimit="10" stroke-linecap="round"/>
<path d="M128.027 112.968L96.0288 101.881L93.2904 109.784L125.288 120.871L128.027 112.968Z" stroke="#263238" stroke-miterlimit="10" stroke-linecap="round" stroke-linejoin="round"/>
<path d="M120.156 127.908L93.024 118.524C91.698 118.014 90.984 116.586 91.494 115.26L93.432 109.752L125.358 120.87L123.42 126.378C122.91 127.704 121.482 128.418 120.156 127.908Z" stroke="#263238" stroke-miterlimit="10" stroke-linecap="round" stroke-linejoin="round"/>
<path d="M113.424 134.436L94.35 127.806C93.024 127.296 92.31 125.868 92.82 124.542L94.758 119.034L118.626 127.296L116.688 132.804C116.178 134.232 114.75 134.946 113.424 134.436Z" stroke="#263238" stroke-miterlimit="10" stroke-linecap="round" stroke-linejoin="round"/>
<path d="M160.242 77.622L173.706 82.314" stroke="#263238" stroke-miterlimit="10" stroke-linecap="round" stroke-linejoin="round"/>
<path d="M77.826 49.164L91.596 53.856" stroke="#263238" stroke-miterlimit="10" stroke-linecap="round" stroke-linejoin="round"/>
<path d="M137.7 31.314L142.392 17.748" stroke="#263238" stroke-miterlimit="10" stroke-linecap="round" stroke-linejoin="round"/>
<path d="M158.814 49.674L171.462 43.554" stroke="#263238" stroke-miterlimit="10" stroke-linecap="round" stroke-linejoin="round"/>
<path d="M80.172 87.924L92.922 81.702" stroke="#263238" stroke-miterlimit="10" stroke-linecap="round" stroke-linejoin="round"/>
<path d="M109.548 32.334L103.632 20.094" stroke="#263238" stroke-miterlimit="10" stroke-linecap="round" stroke-linejoin="round"/>
<path d="M147.9 111.384L142.086 99.246" stroke="#263238" stroke-miterlimit="10" stroke-linecap="round" stroke-linejoin="round"/>
<path d="M109.344 105.978C109.344 105.978 113.832 83.028 116.892 74.052C119.952 65.076 126.378 59.772 126.276 68.748C126.174 77.724 120.36 85.68 118.422 85.578C116.484 85.374 127.5 63.75 133.11 69.156C138.72 74.562 113.22 106.284 113.22 106.284" stroke="#263238" stroke-miterlimit="10" stroke-linecap="round"/>
<path d="M63.954 118.014C58.854 114.036 51.612 113.322 45.594 116.892C38.76 120.972 35.802 129.54 38.862 136.884C40.596 141.066 43.758 144.126 47.532 145.758C51 147.288 53.754 149.94 55.488 153.204L56.508 155.244L72.216 147.288L71.196 145.248C69.462 141.882 69.054 138.108 69.87 134.436C70.686 130.866 70.38 126.99 68.544 123.42C68.034 122.4 67.422 121.38 66.708 120.564" stroke="#263238" stroke-miterlimit="10" stroke-linecap="round"/>
<path d="M72.1073 147.333L56.353 155.282L58.3289 159.198L74.0832 151.248L72.1073 147.333Z" stroke="#263238" stroke-miterlimit="10" stroke-linecap="round" stroke-linejoin="round"/>
<path d="M73.746 156.264L62.628 161.874C61.404 162.486 59.874 161.976 59.16 160.752L58.344 159.12L74.052 151.164L74.868 152.796C75.48 154.122 74.97 155.652 73.746 156.264Z" stroke="#263238" stroke-miterlimit="10" stroke-linecap="round" stroke-linejoin="round"/>
<path d="M73.746 161.16L66.606 164.832C65.382 165.444 63.852 164.934 63.138 163.71L62.322 162.078L74.052 156.162L74.868 157.794C75.48 159.018 74.97 160.548 73.746 161.16Z" stroke="#263238" stroke-miterlimit="10" stroke-linecap="round" stroke-linejoin="round"/>
<path d="M70.584 122.604L77.214 119.238" stroke="#263238" stroke-miterlimit="10" stroke-linecap="round" stroke-linejoin="round"/>
<path d="M30.09 143.004L36.822 139.638" stroke="#263238" stroke-miterlimit="10" stroke-linecap="round" stroke-linejoin="round"/>
<path d="M45.084 114.24L41.718 107.508" stroke="#263238" stroke-miterlimit="10" stroke-linecap="round" stroke-linejoin="round"/>
<path d="M59.67 112.914L61.914 105.978" stroke="#263238" stroke-miterlimit="10" stroke-linecap="round" stroke-linejoin="round"/>
<path d="M45.39 156.162L47.736 149.226" stroke="#263238" stroke-miterlimit="10" stroke-linecap="round" stroke-linejoin="round"/>
<path d="M35.292 125.052L28.56 122.808" stroke="#263238" stroke-miterlimit="10" stroke-linecap="round" stroke-linejoin="round"/>
<path d="M78.744 139.332L72.012 137.19" stroke="#263238" stroke-miterlimit="10" stroke-linecap="round" stroke-linejoin="round"/>
<path d="M62.73 151.776C62.73 151.776 55.794 141.78 53.55 137.394C51.306 133.008 51.612 128.724 54.978 131.988C58.242 135.252 59.16 140.352 58.446 140.964C57.63 141.678 53.55 129.642 57.63 129.54C61.71 129.438 64.26 150.45 64.26 150.45" stroke="#263238" stroke-miterlimit="10" stroke-linecap="round"/>
<path d="M37.842 484.602L40.596 487.356L50.082 479.706C52.326 481.032 54.672 482.052 57.324 482.766L58.65 494.904H70.788L72.114 482.766C74.664 482.052 77.112 481.134 79.356 479.808L88.944 487.458L97.512 478.89L89.862 469.404C91.188 467.16 92.208 464.814 92.922 462.162L105.06 460.836V448.698L92.922 447.372C92.208 444.822 91.29 442.374 89.964 440.13L97.614 430.542L89.046 421.974L79.56 429.624C77.316 428.298 74.97 427.278 72.318 426.564L70.992 414.426H58.854L57.528 426.564C54.978 427.278 52.53 428.196 50.286 429.522L40.698 421.872L32.13 430.44L39.78 439.926C38.454 442.17 37.434 444.516 36.72 447.168L24.582 448.494V460.632L36.72 461.958C37.434 464.508 38.352 466.956 39.678 469.2L32.028 478.788L34.986 481.746M53.448 463.488C51.51 461.04 50.388 457.98 50.388 454.614C50.388 446.658 56.916 440.13 64.872 440.13C72.828 440.13 79.356 446.658 79.356 454.614C79.356 462.57 72.828 469.098 64.872 469.098C61.914 469.098 59.16 468.18 56.916 466.752" stroke="#263238" stroke-miterlimit="10"/>
<path d="M147.492 428.604L143.208 428.808C142.494 427.176 141.576 425.646 140.454 424.32L144.432 417.18L137.802 412.488L132.294 418.608C130.662 417.996 128.928 417.588 127.194 417.384L124.95 409.53L116.892 410.856L117.3 419.016C115.668 419.73 114.138 420.648 112.812 421.77L105.672 417.792L100.98 424.422L107.1 429.93C106.488 431.562 106.08 433.296 105.876 435.03L98.022 437.274L99.348 445.332L107.508 444.924C108.222 446.556 109.14 448.086 110.262 449.412L106.284 456.552L112.914 461.244L118.422 455.124C120.054 455.736 121.788 456.144 123.522 456.348L125.766 464.202L133.824 462.876L133.416 454.716C135.048 454.002 136.578 453.084 137.904 451.962L145.044 455.94L149.736 449.31L143.616 443.802C144.228 442.17 144.636 440.436 144.84 438.702L152.694 436.458L151.368 428.4M123.828 427.278C129.132 426.36 134.13 429.93 135.048 435.234C135.966 440.538 132.396 445.536 127.092 446.454C121.788 447.372 116.79 443.802 115.872 438.498C115.464 435.846 116.076 433.296 117.504 431.256" stroke="#263238" stroke-miterlimit="10"/>
<path d="M404.328 320.484L395.964 304.878L410.856 301.716L404.328 320.484Z" fill="#263238" stroke="#263238" stroke-miterlimit="10"/>
<path d="M390.558 183.192L247.146 202.368L257.856 305.49L412.896 309.876C412.896 309.978 423.504 224.094 390.558 183.192Z" fill="white" stroke="#263238" stroke-miterlimit="10"/>
<path d="M125.97 204.306C125.97 204.306 129.744 206.448 144.84 203.898C159.936 201.348 186.456 194.208 193.596 192.984C200.736 191.76 223.89 193.8 230.112 197.574C236.436 201.348 271.728 222.768 283.866 227.358C296.004 231.948 312.426 240.006 322.524 246.228C332.622 252.552 391.476 292.434 391.476 292.434C391.476 292.434 401.574 301.308 403.206 308.856C404.838 316.404 401.574 325.686 394.842 327.726C388.11 329.868 379.746 330.684 379.746 330.684C379.746 330.684 379.746 344.556 373.83 351.696C366.18 361.182 354.96 362.202 354.96 362.202C354.96 362.202 349.452 373.932 342.312 376.89C335.172 379.848 325.482 382.398 325.482 382.398C325.482 382.398 323.34 393.312 312.018 396.27C300.696 399.228 288.048 397.086 282.642 395.454C277.134 393.822 287.64 393.312 256.632 381.582C225.522 369.852 164.22 348.84 141.882 340.374C119.646 332.01 108.222 320.178 108.222 320.178L125.97 204.306Z" fill="#CCCCCC" stroke="#263238" stroke-miterlimit="10"/>
<path d="M125.358 243.882L124.032 330.378L112.812 325.38L125.358 243.882Z" fill="#263238" stroke="#263238" stroke-miterlimit="10"/>
<path d="M302.532 282.03L312.12 291.72L379.848 330.786" stroke="#263238" stroke-miterlimit="10"/>
<path d="M302.94 334.764C318.444 343.74 345.78 359.55 347.922 360.162C350.88 360.978 355.062 362.304 355.062 362.304" stroke="#263238" stroke-miterlimit="10"/>
<path d="M292.434 328.644C292.434 328.644 294.678 329.97 298.248 332.01" stroke="#263238" stroke-miterlimit="10"/>
<path d="M261.732 353.43C261.732 353.43 290.7 367.302 302.94 374.85C315.078 382.398 325.584 382.398 325.584 382.398" stroke="#263238" stroke-miterlimit="10"/>
<path d="M370.668 340.476C370.668 340.476 368.934 354.144 358.428 357.102" stroke="#263238" stroke-miterlimit="10"/>
<path d="M381.072 291.72C381.072 291.72 383.01 301.512 376.686 309.366C370.362 317.22 367.914 317.832 367.914 317.832" stroke="#263238" stroke-miterlimit="10"/>
<path d="M375.462 292.332C375.462 292.332 373.524 302.736 370.158 307.428" stroke="#263238" stroke-miterlimit="10"/>
<path d="M366.894 298.962C366.894 298.962 363.426 307.122 363.732 312.528" stroke="#263238" stroke-miterlimit="10"/>
<path d="M368.832 336.396C368.832 336.396 361.896 340.782 359.346 347.718" stroke="#263238" stroke-miterlimit="10"/>
<path d="M335.478 360.978C335.478 360.978 332.622 372.81 327.624 375.87" stroke="#263238" stroke-miterlimit="10"/>
<path d="M333.336 357.918C333.336 357.918 329.358 369.036 328.134 369.954" stroke="#263238" stroke-miterlimit="10"/>
<path d="M59.058 402.186L83.844 337.008L72.522 331.704L59.058 402.186Z" fill="#263238" stroke="#263238" stroke-miterlimit="10"/>
<path d="M106.284 201.348L127.704 201.756C129.03 201.756 130.152 202.98 129.948 204.306L116.484 344.454C116.382 345.474 115.464 346.188 114.444 345.984L70.074 336.294L106.284 201.348Z" fill="white" stroke="#263238" stroke-miterlimit="10"/>
<path d="M107.406 225.012L80.886 337.212L73.134 334.866L107.406 225.012Z" fill="#263238" stroke="#263238" stroke-miterlimit="10"/>
<path d="M112.2 196.35L-0.20401 160.752V386.478L55.59 405.042C57.12 405.552 58.752 404.736 59.16 403.206L114.036 199.716C114.342 198.288 113.526 196.758 112.2 196.35Z" fill="#754DCE" stroke="#263238" stroke-miterlimit="10"/>
<path d="M25.296 394.536L0.50999 306.816L-0.20401 386.478L25.296 394.536Z" fill="#263238" stroke="#263238" stroke-miterlimit="10"/>
<path d="M425.34 357L410.04 316.914L440.844 306.816C440.844 306.816 432.582 342.924 427.38 355.674C426.666 357.306 425.952 358.632 425.34 357Z" fill="#263238" stroke="#263238" stroke-miterlimit="10"/>
<path d="M375.87 180.846C373.83 181.356 372.81 183.702 373.932 185.538C378.726 193.8 390.354 216.036 399.024 251.124C408.918 290.904 405.348 315.18 404.328 320.484C404.226 320.994 404.634 321.504 405.246 321.402L434.622 317.424C434.622 317.424 437.172 238.782 420.444 208.896C403.818 179.01 399.636 174.624 399.636 174.624L375.87 180.846Z" fill="white" stroke="#263238" stroke-miterlimit="10"/>
<path d="M401.676 210.732C401.676 210.732 415.854 236.844 418.812 269.79C421.668 302.022 420.24 317.832 420.24 317.832L430.032 316.098C430.032 316.098 437.478 279.888 427.992 248.778C418.506 217.668 400.962 204.51 400.962 204.51L401.676 210.732Z" fill="#263238" stroke="#263238" stroke-miterlimit="10"/>
<path d="M509.388 131.478L382.5 174.216C380.46 174.93 379.848 177.378 381.174 179.01C389.232 188.598 407.184 219.096 415.446 251.94C424.32 287.436 426.156 343.842 425.34 356.898C425.238 358.224 426.462 359.244 427.788 358.938L509.388 339.66V131.478Z" fill="#754DCE" stroke="#263238" stroke-miterlimit="10"/>
<path d="M497.658 342.822L509.184 264.282L509.388 339.762L497.658 342.822Z" fill="#263238" stroke="#263238" stroke-miterlimit="10"/>
<path d="M199.614 335.376C199.614 335.376 179.112 356.286 177.378 365.568C175.644 374.85 180.132 380.052 187.884 384.336C195.636 388.62 202.878 387.09 206.448 384.54C209.916 381.99 224.196 359.04 224.706 351.696C225.216 344.454 222.666 339.456 216.24 336.192C209.712 332.928 205.632 331.5 199.614 335.376Z" fill="white" stroke="#263238" stroke-miterlimit="10"/>
<path d="M231.846 342.618C231.846 342.618 211.446 373.524 209.508 377.706C207.468 381.888 215.526 394.128 224.808 396.474C234.09 398.82 241.23 396.27 242.25 395.556C243.372 394.842 253.572 362.406 253.878 360.06C254.286 357.714 255.714 350.778 248.778 345.372C241.842 339.966 234.804 340.476 231.846 342.618Z" fill="white" stroke="#263238" stroke-miterlimit="10"/>
<path d="M156.06 335.58C153.714 336.192 151.674 337.926 150.858 340.272C150.042 342.516 149.124 345.474 149.022 348.126C148.818 353.124 155.55 360.876 160.548 363.63C165.546 366.384 171.054 365.874 177.582 362.1C184.11 358.326 180.54 348.84 177.072 344.352C173.91 340.272 167.28 332.724 156.06 335.58Z" fill="white" stroke="#263238" stroke-miterlimit="10"/>
<path d="M156.162 346.902L172.992 359.55C172.992 359.55 168.198 360.774 164.118 360.162C160.038 359.448 155.244 356.49 155.448 350.574" stroke="#263238" stroke-miterlimit="10"/>
<path d="M203.286 340.476C203.286 340.476 199.818 342.006 197.982 347.208C196.146 352.41 198.084 356.898 201.96 359.652C205.734 362.508 212.364 361.896 215.322 359.346C218.28 356.796 219.708 353.43 219.708 353.43C219.708 353.43 219.708 348.33 214.2 343.74C208.692 339.15 204.612 340.068 204.612 340.068" stroke="#263238" stroke-miterlimit="10"/>
<path d="M233.376 348.432C233.376 348.432 226.746 358.53 228.174 361.998C229.602 365.466 236.028 369.444 238.578 369.036C241.128 368.628 248.37 361.08 248.778 359.244C249.186 357.408 242.556 351.696 239.802 350.166C236.946 348.636 236.028 348.636 236.028 348.636" stroke="#263238" stroke-miterlimit="10"/>
<path d="M272.646 366.894C272.646 366.894 278.358 373.116 278.868 379.338C279.378 385.56 279.174 388.416 279.684 389.436C280.194 390.456 282.846 395.556 282.846 395.556L276.828 396.372L270.606 388.824L272.646 366.894Z" fill="#263238" stroke="#263238" stroke-miterlimit="10"/>
<path d="M257.142 358.632C257.142 358.632 253.47 360.06 251.124 367.2C248.778 374.34 239.802 389.436 242.25 393.72C244.596 398.106 251.124 402.084 256.428 403.512C261.732 404.94 269.892 403.716 274.482 401.472C279.072 399.33 280.806 394.74 280.806 394.74C280.806 394.74 279.582 392.19 277.134 390.762C274.788 389.334 274.788 389.334 274.788 389.334C274.788 389.334 276.93 372.606 271.83 364.956C266.832 357.306 260.406 357.204 257.142 358.632Z" fill="white" stroke="#263238" stroke-miterlimit="10"/>
<path d="M255.204 363.63C255.204 363.63 257.448 362.814 262.038 366.996C266.628 371.178 265.098 374.544 265.098 374.544C265.098 374.544 261.63 380.562 258.672 381.174C255.714 381.786 249.084 381.99 250.002 375.258" stroke="#263238" stroke-miterlimit="10"/>
<path d="M274.788 389.334C274.788 389.334 273.156 394.944 270.606 397.902" stroke="#263238" stroke-miterlimit="10"/>
<path d="M204.306 238.272C201.246 241.638 213.588 238.68 225.93 225.42C230.418 220.524 268.668 216.648 267.75 219.912L258.978 216.036C258.978 216.036 245.616 215.22 235.212 216.852C224.808 218.484 210.63 227.562 210.63 227.562L204.306 238.272Z" fill="#263238" stroke="#263238" stroke-miterlimit="10"/>
<path d="M269.076 217.77H263.16C263.16 217.77 247.452 218.076 244.596 218.994C241.74 219.912 221.646 223.686 219.096 226.542C216.546 229.398 201.45 242.25 189.516 242.862C177.582 243.474 167.484 237.864 165.648 234.702C163.71 231.54 169.422 224.91 172.89 221.85C176.358 218.688 192.678 200.124 195.84 193.188C199.002 186.252 210.63 185.028 218.484 184.11C226.338 183.192 257.142 173.4 257.142 173.4C257.142 173.4 264.996 169.626 279.786 172.788C294.576 175.95 311.916 178.092 322.218 180.336C332.52 182.58 338.538 184.416 352.716 189.414C366.894 194.412 374.136 206.04 375.666 211.446" fill="white"/>
<path d="M269.076 217.77H263.16C263.16 217.77 247.452 218.076 244.596 218.994C241.74 219.912 221.646 223.686 219.096 226.542C216.546 229.398 201.45 242.25 189.516 242.862C177.582 243.474 167.484 237.864 165.648 234.702C163.71 231.54 169.422 224.91 172.89 221.85C176.358 218.688 192.678 200.124 195.84 193.188C199.002 186.252 210.63 185.028 218.484 184.11C226.338 183.192 257.142 173.4 257.142 173.4C257.142 173.4 264.996 169.626 279.786 172.788C294.576 175.95 311.916 178.092 322.218 180.336C332.52 182.58 338.538 184.416 352.716 189.414C366.894 194.412 374.136 206.04 375.666 211.446" stroke="#263238" stroke-miterlimit="10"/>
<path d="M220.626 205.836C220.626 205.836 225.318 219.708 219.096 226.644" stroke="#263238" stroke-miterlimit="10"/>
<path d="M181.764 215.118C181.764 215.118 169.422 224.808 167.586 227.868C165.648 230.928 167.382 229.806 172.584 228.582C177.786 227.358 185.13 224.094 187.272 221.442C189.414 218.79 195.126 213.384 190.638 212.466C186.15 211.548 184.926 213.894 184.926 213.894" stroke="#263238" stroke-miterlimit="10"/>
<path d="M371.178 257.04C372.504 255.408 373.626 253.572 374.544 251.43" stroke="#263238" stroke-miterlimit="10"/>
<path d="M353.94 267.648C353.94 267.648 360.06 266.118 365.772 262.038" stroke="#263238" stroke-miterlimit="10"/>
</g>
<defs>
<clipPath id="clip0_179_85">
<rect width="510" height="510" fill="white"/>
</clipPath>
</defs>
</svg>
