<svg width="56" height="56" viewBox="0 0 56 56" fill="none" xmlns="http://www.w3.org/2000/svg">
<g clip-path="url(#clip0_183_1479)">
<path d="M56 28C56 33.4354 54.4506 38.5105 51.7722 42.8048C50.7933 44.3724 49.6643 45.8318 48.4032 47.1712C43.2987 52.6066 36.0442 56 28.003 56C25.9011 56 23.8533 55.7658 21.8835 55.3273C19.1151 54.7147 16.4967 53.6817 14.1006 52.3063C11.3081 50.7147 8.81587 48.6426 6.73802 46.2102C6.28761 45.6817 5.85523 45.1411 5.44086 44.5826C2.0178 39.9399 0 34.2042 0 28C0 12.5345 12.5392 0 28.003 0C43.4668 0 56 12.5345 56 28Z" fill="#E8E1EF"/>
<path d="M37.4855 45.3333L21.8836 55.3273C19.1151 54.7147 16.4968 53.6817 14.1006 52.3063C11.3081 50.7147 8.81589 48.6426 6.73804 46.2102C9.03809 41.1471 13.8244 33.7297 22.6643 31.2372C24.622 30.6847 26.3516 30.7387 27.8649 31.2192C35.0954 33.5075 37.4855 45.3333 37.4855 45.3333Z" fill="#A37B90"/>
<path d="M51.7722 42.8048C50.7933 44.3724 49.6643 45.8318 48.4032 47.1712C43.2987 52.6066 36.0442 56 28.003 56C22.9405 56 18.1962 54.6607 14.1006 52.3063C14.7372 44.3303 15.3737 37.964 15.8662 36.6487C16.845 34.03 23.4029 32.1862 27.8649 31.2192C30.255 30.7087 32.0446 30.4445 32.0446 30.4445C32.0446 30.4445 40.8485 30.8469 47.9948 37.7538C49.268 38.985 50.5411 40.7267 51.7722 42.8048Z" fill="#A37B90"/>
<path d="M21.7634 10.5766C21.7634 10.5766 18.8508 13.8739 20.4542 17.5015C22.0576 21.1351 23.7752 10.9009 23.7752 10.9009L21.7694 10.5706L21.7634 10.5766Z" fill="black"/>
<path d="M31.5583 25.3754L31.6664 31.9099C31.6664 31.9099 30.5193 33.8078 26.6999 34.1862C23.8534 34.4685 22.8445 33.8378 22.8445 33.8378L23.1868 30.5225L23.5231 27.2853L30.3992 25.6516L31.5523 25.3754H31.5583Z" fill="#F48462"/>
<path d="M30.4051 25.6517C30.3931 25.8319 31.456 26.3904 31.3539 26.6367C29.9487 29.9279 24.706 31.5796 23.0605 31.7538L23.523 27.2853L30.3991 25.6517H30.4051Z" fill="black"/>
<path d="M23.0006 10.9009C22.1058 11.6337 21.4752 12.6367 21.1029 13.7298C20.2502 16.2523 18.5266 22.1382 19.6556 25.7538C21.1209 30.4445 25.3547 29.5676 27.871 28.5706C30.3872 27.5736 31.5162 25.958 31.5162 25.958C31.5162 25.958 33.9244 26.7027 35.4377 24.4084C36.9511 22.1201 35.8881 19.5736 34.5069 19.0271C33.1317 18.4805 31.5462 19.5256 31.5462 19.5256L32.7293 17.0391C32.7293 17.0391 27.967 6.85889 23.0006 10.9009Z" fill="#F48462"/>
<path d="M31.8945 22.7327C31.8044 22.7327 31.7143 22.6907 31.6543 22.6126C31.5522 22.4805 31.5822 22.2883 31.7143 22.1922L34.0985 20.4144C34.2306 20.3183 34.4168 20.3423 34.5188 20.4745C34.6209 20.6066 34.5909 20.7988 34.4588 20.8949L32.0747 22.6727C32.0206 22.7147 31.9606 22.7327 31.8945 22.7327Z" fill="black"/>
<path d="M34.5788 22.6486C34.5788 22.6486 34.5308 22.6486 34.5068 22.6426L32.561 22.1741C32.3989 22.1381 32.3028 21.976 32.3388 21.8138C32.3749 21.6516 32.537 21.5495 32.6992 21.5916L34.6449 22.06C34.807 22.0961 34.9031 22.2582 34.8671 22.4204C34.8371 22.5585 34.711 22.6486 34.5728 22.6486H34.5788Z" fill="black"/>
<path d="M21.0789 18.5406C21.0789 18.5406 21.0308 18.5406 21.0068 18.5285C20.8447 18.4865 20.7486 18.3243 20.7906 18.1622L21.175 16.6547C21.217 16.4925 21.3792 16.3964 21.5413 16.4385C21.7034 16.4805 21.7995 16.6427 21.7575 16.8048L21.3731 18.3123C21.3371 18.4505 21.217 18.5406 21.0849 18.5406H21.0789Z" fill="black"/>
<path d="M25.2166 18.7628C25.2166 18.7628 25.1685 18.7628 25.1445 18.7508C24.9824 18.7087 24.8863 18.5466 24.9283 18.3844L25.3127 16.8769C25.3547 16.7147 25.5168 16.6186 25.679 16.6607C25.8411 16.7027 25.9372 16.8649 25.8952 17.0271L25.5108 18.5346C25.4748 18.6727 25.3547 18.7628 25.2226 18.7628H25.2166Z" fill="black"/>
<path d="M20.8445 15.2553C20.6944 15.2553 20.5623 15.1412 20.5443 14.985C20.5263 14.8228 20.6464 14.6727 20.8085 14.6547L22.0456 14.5225C22.2078 14.5045 22.3579 14.6246 22.3759 14.7868C22.3939 14.949 22.2738 15.0991 22.1117 15.1171L20.8746 15.2493C20.8746 15.2493 20.8505 15.2493 20.8445 15.2493V15.2553Z" fill="black"/>
<path d="M26.4656 16.2523C26.4296 16.2523 26.3876 16.2463 26.3515 16.2283L24.664 15.5256C24.5139 15.4595 24.4418 15.2853 24.5019 15.1352C24.5679 14.985 24.7421 14.9129 24.8922 14.973L26.5797 15.6757C26.7299 15.7418 26.8019 15.9159 26.7419 16.0661C26.6938 16.1802 26.5797 16.2523 26.4656 16.2523Z" fill="black"/>
<path d="M31.5463 19.5255C31.5463 19.5255 30.8677 22.2462 30.3452 21.9159C29.8227 21.5856 29.3363 17.6636 29.7267 15.9099C30.117 14.1561 30.3993 13.2732 30.3993 13.2732C30.3993 13.2732 23.2589 12.6366 21.3792 10.9429C19.4995 9.24922 23.4751 8.15012 27.5407 8.91889C31.6063 9.68766 33.2098 11.2192 33.2098 11.2192C33.2098 11.2192 35.756 10.8408 36.7109 12.3964C37.6657 13.9519 35.4978 19.8558 35.4978 19.8558C35.4978 19.8558 34.8552 18.3723 31.5523 19.5375L31.5463 19.5255Z" fill="black"/>
<path d="M17.9321 22.3363C17.9321 22.3363 19.9259 20.1261 20.9408 20.4564C21.9557 20.7868 22.3281 22.2703 22.3281 22.2703C22.3281 22.2703 23.5351 20.6006 24.8623 21.0691C26.1895 21.5375 29.042 21.7117 29.0721 22.1742C29.1021 22.6366 28.2794 22.7988 28.2794 22.7988C28.2794 22.7988 21.5714 23.5736 17.9381 22.3303L17.9321 22.3363Z" fill="black"/>
<path d="M31.5462 19.5255C31.5462 19.5255 31.4261 23.9339 31.5102 25.9579C31.5942 27.982 25.9732 31.1351 22.0938 29.3934C18.2143 27.6516 19.2772 22.5646 19.2772 22.5646L22.7363 22.8829C22.7363 22.8829 23.535 22.4324 24.4419 22.2462C25.3487 22.06 26.5557 22.5525 26.5557 22.5525L31.5462 19.5255Z" fill="black"/>
<path d="M23.2829 23.8919C23.1447 23.8919 23.0246 23.7898 23.0126 23.6457C22.9946 23.4955 23.1087 23.3574 23.2588 23.3454C23.2708 23.3454 24.4419 23.2072 24.8743 22.3544C24.9403 22.2162 25.1085 22.1682 25.2406 22.2282C25.3787 22.2943 25.4328 22.4625 25.3667 22.5946C24.8022 23.7237 23.3789 23.8859 23.3189 23.8919C23.3069 23.8919 23.3009 23.8919 23.2889 23.8919H23.2829Z" fill="black"/>
<path d="M22.2078 21.8078C22.0997 21.8078 21.9916 21.7478 21.9375 21.6396C20.9647 19.6997 22.3639 17.6577 22.424 17.5736C22.5201 17.4354 22.7062 17.4054 22.8443 17.5015C22.9825 17.5976 23.0125 17.7838 22.9164 17.9219C22.9044 17.9399 21.6673 19.7598 22.478 21.3814C22.5501 21.5315 22.49 21.7117 22.3459 21.7838C22.3039 21.8078 22.2558 21.8138 22.2138 21.8138L22.2078 21.8078Z" fill="black"/>
<path d="M24.9161 34.5105C23.0004 34.5105 21.5171 34.1381 21.385 34.1021C21.2229 34.06 21.1268 33.8979 21.1688 33.7357C21.2108 33.5736 21.373 33.4775 21.5351 33.5195C21.6012 33.5375 28.3152 35.2192 31.6662 31.2492C31.7743 31.1231 31.9604 31.1051 32.0865 31.2132C32.2127 31.3213 32.2307 31.5075 32.1226 31.6336C30.1588 33.9639 27.2222 34.5045 24.9101 34.5045L24.9161 34.5105Z" fill="#F7B369"/>
<path d="M21.4993 23.5736C21.4993 23.5736 22.2379 24.4264 22.9165 24.4264C23.5951 24.4264 24.1957 23.2673 24.1957 23.2673L21.4993 23.5736Z" fill="#F27E64"/>
</g>
<defs>
<clipPath id="clip0_183_1479">
<rect width="56" height="56" fill="white"/>
</clipPath>
</defs>
</svg>
