<svg width="726" height="453" viewBox="0 0 726 453" fill="none" xmlns="http://www.w3.org/2000/svg">
<g clip-path="url(#clip0_81_2746)">
<path d="M707.5 203.5C718.3 192.3 722.3 174.9 717.5 160.1C712.7 145.3 699.2 133.6 683.8 130.9C668.4 128.2 651.8 134.6 642.2 146.9L626.8 178.5C648.9 194.5 671 210.5 693.1 226.5C700.5 231.9 710.9 237.2 718 231.5C721 229.1 722.4 225.2 722.5 221.4C722.8 212.9 716 204.7 707.5 203.5Z" fill="#EBEBEB"/>
<path d="M358.5 192.6C369.9 189.1 375.4 193.5 375.4 193.5C375.4 193.5 375.7 187.7 381 185.1C384.7 183.3 389.5 182.4 392.7 185.1C390 179.9 391.1 172.9 395.4 168.8C399.6 164.7 406.6 163.8 411.7 166.7C404.3 148.1 414.3 124.5 432.9 116.9C451.4 109.3 475.2 119.1 482.9 137.6C483.6 128.7 493.7 121.9 502.2 124.6C498.8 118.2 504.8 109.1 512 109.6C508.5 97.3 513.1 83 523.2 75.1C533.3 67.2 548.3 66.1 559.4 72.6C570.5 79 577.1 92.5 575.4 105.2C581.5 100.8 591 102.3 595.4 108.4C599.1 90.9 618.2 78.7 635.8 81.4C653.5 84 667.8 100 669.9 117.8C672 135.5 662.7 153.7 647.9 163.7L352 217.5C344.6 210.2 348.6 195.6 358.5 192.6Z" fill="#EBEBEB"/>
<g opacity="0.72">
<path d="M439.3 164.7C438.3 162.1 441.7 156.6 445.3 152.2C447.1 150 449.6 148.6 452.2 147.6C461.7 144 472.2 148.8 480.2 155.1C479.8 151 484 147.1 488 147.8C485.2 144.8 479.6 147.2 478.2 151C472.9 147.8 466.9 144 460.7 143.4C454.5 142.8 449.7 144.3 445.3 148.7C441.1 153 438.2 158.4 439.3 164.7Z" fill="white"/>
</g>
<g opacity="0.72">
<path d="M531.4 108.2C527.1 111 524.5 116.1 524.8 121.2C521.5 120.3 517.9 120.9 515.1 122.8C512.3 124.6 510.2 127.7 509.7 131C511.1 127.8 514.3 124.6 517.6 123.4C522.4 121.8 526.1 123.2 528.1 125.7C527 120.8 528.6 115.3 532.1 111.7C535.6 108.1 541.1 106.5 546 107.5C541.5 105.2 535.7 105.4 531.4 108.2Z" fill="white"/>
</g>
<path d="M343.7 190C332.3 186.5 326.8 190.9 326.8 190.9C326.8 190.9 326.5 185.1 321.2 182.5C317.5 180.7 312.7 179.8 309.5 182.5C312.2 177.3 311.1 170.3 306.8 166.2C302.6 162.1 295.6 161.2 290.5 164.1C297.9 145.5 287.9 121.9 269.3 114.3C250.8 106.7 227 116.5 219.3 135C218.6 126.1 208.5 119.3 200 122C203.4 115.6 197.4 106.5 190.2 107C193.7 94.7 189.1 80.4 179 72.5C168.9 64.6 153.9 63.5 142.8 70C131.7 76.4 125.1 89.9 126.8 102.6C120.7 98.2 111.2 99.7 106.8 105.8C103.1 88.3 84 76.1 66.4 78.8C48.7 81.4 34.4 97.4 32.3 115.2C30.2 132.9 39.5 151.1 54.3 161.1L350.3 215C357.7 207.7 353.7 193.1 343.7 190Z" fill="#EBEBEB"/>
<g opacity="0.72">
<path d="M175.8 106.5C180.1 109.3 182.7 114.4 182.4 119.5C185.7 118.6 189.3 119.2 192.1 121.1C194.9 122.9 197 126 197.5 129.3C196.1 126.1 192.9 122.9 189.6 121.7C184.8 120.1 181.1 121.5 179.1 124C180.2 119.1 178.6 113.6 175.1 110C171.6 106.4 166.1 104.8 161.2 105.8C165.7 103.5 171.5 103.7 175.8 106.5Z" fill="white"/>
</g>
<g opacity="0.72">
<path d="M157 108.5C159.3 110 160.7 112.8 160.6 115.5C162.4 115 164.3 115.3 165.9 116.3C167.5 117.3 168.5 118.9 168.8 120.7C168.1 119 166.3 117.2 164.5 116.6C161.9 115.7 159.9 116.5 158.8 117.8C159.4 115.1 158.6 112.2 156.6 110.3C154.6 108.4 151.8 107.5 149.1 108C151.6 106.9 154.7 107 157 108.5Z" fill="white"/>
</g>
<path d="M286.5 107.3C286.5 107.3 286.4 107.3 286.3 107.3C286.1 107.3 285.9 107.3 285.7 107.3C285.5 107.3 285.3 107.3 285.1 107.2C285.3 107.2 285.5 107.2 285.7 107.2C285.9 107.2 286.1 107.2 286.3 107.2C286.4 107.3 286.5 107.3 286.5 107.3Z" fill="#E0E0E0"/>
<path d="M286.6 107C286.6 107 286.5 107 286.4 107C286.3 107 286 107 285.8 107C285.6 107 285.4 107 285.2 106.9C285.4 106.9 285.6 106.9 285.8 106.9C286 106.9 286.2 106.9 286.4 106.9C286.5 107 286.6 107 286.6 107Z" fill="#E0E0E0"/>
<path d="M280.2 106.8C280.2 106.8 280.4 106.3 280.7 106.2C281 106.1 283.4 105.8 283.4 105.8L287.5 106.2C287.5 106.2 287.4 106.6 286.7 106.7C286.1 106.8 285.3 106.7 285.3 106.7C285.3 106.7 284.9 107.2 284.2 107.4C283.5 107.6 282.6 107.7 281.9 107.3C281.2 106.9 280.7 107.4 280.5 107C280.3 106.8 280.2 106.8 280.2 106.8Z" fill="#E0E0E0"/>
<path d="M288.1 100.2C288 100.6 287.8 101 287.6 101.3C287.5 101.4 287.5 101.5 287.3 101.6C287.5 101 287.7 100.4 287.7 99.7C287.6 99.9 287.6 100.1 287.5 100.3C287.4 100.5 287.4 100.6 287.3 100.8C287.1 101.2 286.8 101.5 286.5 101.8C286.3 102 286.1 102.3 285.8 102.5C285.3 102.9 285.2 102.9 284.6 103.3C284.4 103.4 284.1 103.6 283.9 103.8C283.8 103.9 283.8 104 283.8 104.1C283.5 104.9 283 105.7 282.3 106.3L283.7 106.6C284.3 106.5 284.8 106.2 285.1 105.8C285.5 105.4 285.7 104.9 285.8 104.3C285.8 104.2 285.9 104 286 103.9C286.1 103.8 286.2 103.8 286.3 103.7C286.5 103.6 286.6 103.5 286.7 103.3C286.6 103.4 286.5 103.4 286.3 103.4C286.6 103.2 287 102.9 287.3 102.6C287.6 102.3 287.9 102 288 101.7C287.9 101.9 287.7 102 287.6 102.1C287.9 101.5 288.1 100.9 288.1 100.2Z" fill="#E0E0E0"/>
<path d="M280.7 106.5C280.6 106.5 280.6 106.6 280.6 106.6C280.6 106.7 280.7 106.7 280.7 106.7C280.8 106.7 280.8 106.7 280.8 106.6C280.9 106.6 280.9 106.5 280.7 106.5Z" fill="#E0E0E0"/>
<path d="M280.2 106.7C280.2 106.7 279.8 106.8 279.7 107C279.6 107.2 279.6 107.4 279.6 107.4C279.6 107.4 279.7 107.3 279.9 107.2C280.2 107.1 280.4 107 280.4 107L280.2 106.7Z" fill="#E0E0E0"/>
<path d="M282.9 105.5C282.4 105.1 282 104.7 281.5 104.3C281.3 104.2 281.2 104 281.1 103.8C280.8 103.4 280.8 103 280.5 102.6C280.5 102.7 280.4 102.8 280.4 102.9C280.3 102.6 280.2 102.4 280.1 102.1C280.1 102.2 280 102.3 280 102.5C279.9 102.1 279.8 101.8 279.5 101.5C279.4 101.6 279.3 101.8 279.3 102C279.2 101.7 279 101.4 278.9 101C278.6 101.8 278.7 102.8 278.9 103.7C278.9 103.9 279 104 279.1 104.2C279.2 104.4 279.3 104.5 279.5 104.6C280.1 105.1 280.9 105.6 281.4 106.3L283.5 106.2C283.3 106.1 282.9 105.6 282.9 105.5Z" fill="#E0E0E0"/>
<path d="M285.8 104.3C285.8 104.2 285.9 104 286 103.9C286.1 103.8 286.2 103.8 286.3 103.7C286.5 103.6 286.6 103.5 286.7 103.3C286.6 103.4 286.5 103.4 286.3 103.4C286.6 103.2 287 102.9 287.3 102.6C287.6 102.3 287.9 102 288 101.7C287.9 101.9 287.7 102 287.6 102.1C288 101.5 288.2 100.9 288.2 100.2C288.1 100.6 287.9 101 287.7 101.3C287.6 101.4 287.6 101.5 287.4 101.6C287.6 101 287.8 100.4 287.8 99.7C287.7 99.9 287.7 100.1 287.6 100.3C287.5 100.5 287.5 100.6 287.4 100.8C287.2 101.2 286.9 101.5 286.6 101.8C286.4 102 286.1 102.3 285.9 102.5L287.1 101.9L286.5 102.6L287.2 102.3C287.2 102.3 286.1 103.2 285.9 103.7C285.7 104.2 285.9 104.5 285.9 104.5L285.8 104.3Z" fill="#E0E0E0"/>
<path d="M281 103.8C280.7 103.4 280.7 103 280.4 102.6C280.4 102.7 280.3 102.8 280.3 102.9C280.2 102.6 280.1 102.4 280 102.1C280 102.2 279.9 102.3 279.9 102.5C279.8 102.1 279.7 101.8 279.4 101.5C279.3 101.6 279.2 101.8 279.2 102C279.1 101.7 278.9 101.4 278.8 101C278.5 101.8 278.6 102.8 278.8 103.7C278.8 103.9 278.9 104 279 104.2L279.1 103.5C279.1 103.5 279.1 102.6 279.4 102.9C279.7 103.2 280.2 103.9 280.2 103.9L280.1 103.3C280.1 103.3 280.5 103.9 280.7 103.9C280.9 103.9 281 103.8 281 103.8Z" fill="#E0E0E0"/>
<path d="M283.9 103.9C283.9 104 283.9 104 283.8 104.1C283.7 104.2 283.7 104.4 283.6 104.6C283.5 104.8 283.4 105 283.2 105.3C283.1 105.4 283 105.6 283 105.7C283 105.8 282.9 105.8 282.8 105.9H282.7H282.6C281.9 106 281.3 106.1 280.8 106.1C280.7 106.1 280.6 106.2 280.5 106.2C280.4 106.3 280.4 106.3 280.3 106.4C280.2 106.5 280.2 106.6 280.2 106.6C280.2 106.6 280.2 106.5 280.3 106.5C280.3 106.4 280.4 106.4 280.4 106.3C280.5 106.2 280.6 106.2 280.7 106.1C281.2 106 281.8 106 282.5 105.9H282.6H282.7C282.8 105.8 282.8 105.8 282.9 105.7C283 105.6 283.1 105.4 283.1 105.3C283.2 105 283.4 104.8 283.5 104.6C283.6 104.4 283.7 104.2 283.7 104.1C283.8 104.1 283.8 104 283.9 103.9Z" fill="#E0E0E0"/>
<path d="M286.3 102.7C286.3 102.8 286.2 102.8 286.2 102.9C286.1 103 286 103.1 285.9 103.2C285.7 103.3 285.5 103.5 285.3 103.6C285.2 103.7 285.1 103.7 285 103.8C284.9 103.9 284.8 104 284.7 104.1C284.5 104.3 284.4 104.6 284.3 104.9C284.2 105.1 284.1 105.4 284 105.5C283.9 105.7 283.8 105.8 283.7 105.9L283.6 106C283.6 106 283.6 106 283.7 105.9C283.8 105.8 283.9 105.7 284 105.5C284.1 105.3 284.2 105.1 284.3 104.9C284.4 104.7 284.5 104.4 284.7 104.1C284.8 104 284.9 103.9 285 103.8C285.1 103.7 285.2 103.6 285.4 103.6C285.6 103.5 285.8 103.3 286 103.2C286.2 103.1 286.3 103 286.3 102.9C286.3 102.7 286.3 102.7 286.3 102.7Z" fill="#E0E0E0"/>
<path d="M283.6 107.1C283.6 107.1 283.5 107.2 283.4 107.1C283.3 107.1 283.2 107 283.2 107C283.2 107 283.3 107 283.4 107.1C283.5 107.1 283.6 107.1 283.6 107.1Z" fill="#E0E0E0"/>
<path d="M284.1 107C284.1 107 283.9 107.1 283.7 107.1C284 107 284.1 107 284.1 107Z" fill="#E0E0E0"/>
<path d="M285.6 107.2C285.4 107.2 285.2 107.2 285 107.2C285.2 107.2 285.4 107.3 285.6 107.2C285.8 107.3 286 107.3 286.2 107.3C286 107.2 285.8 107.2 285.6 107.2Z" fill="#E0E0E0"/>
<path d="M438 90.6C434.9 89.8 431.6 90.5 428.4 91.4C428.7 87.2 426.3 82.9 422.5 80.9C418.8 78.9 413.9 79.3 410.5 81.9C407.5 73.9 401.1 66.8 392.9 64.3C384.7 61.8 374.8 64.5 370 71.6C365.5 78.3 366.7 88.4 373 93.3C361.8 86.6 353.1 95.3 354.2 104.7C379.5 104 406.1 105.1 431.5 104.3C434.1 104.2 436.8 104.1 439.2 103.1C441.6 102.1 443.7 100 443.9 97.4C444 94.2 441.1 91.4 438 90.6Z" fill="#EBEBEB"/>
<path d="M682.3 41.4C678.5 40.4 674.5 41.3 670.8 42.3C671.1 37.2 668.2 32.1 663.7 29.7C659.2 27.3 653.3 27.8 649.3 30.9C645.6 21.2 638 12.8 628.1 9.69998C618.2 6.69998 606.3 9.89998 600.5 18.5C595.1 26.5 596.6 38.7 604.1 44.6C590.6 36.5 580.2 47 581.4 58.4L673.1 59C676.2 58.9 680.6 58.9 683.5 57.7C686.4 56.5 689.4 54.3 689.4 49.7C689.2 45.7 686.1 42.4 682.3 41.4Z" fill="#EBEBEB"/>
<path d="M339.3 43.8C334.3 42.5 329 43.7 324.1 45C324.5 38.3 320.7 31.4 314.7 28.3C308.7 25.1 300.9 25.8 295.6 29.9C290.7 17.1 280.6 5.89999 267.5 1.89999C254.4 -2.10001 238.6 2.19999 230.9 13.5C223.7 24.1 225.7 40.3 235.6 48C217.8 37.3 204 51.2 205.6 66.2L326.8 67C330.9 66.9 336.7 66.9 340.5 65.3C344.3 63.7 348.3 60.8 348.3 54.7C348.5 49.6 344.3 45.1 339.3 43.8Z" fill="#F5F5F5"/>
<path d="M134.8 26.6C132.2 25.9 129.4 26.5 126.7 27.3C126.9 23.7 124.9 20.1 121.7 18.4C118.5 16.7 114.4 17.1 111.6 19.3C109 12.5 103.6 6.59999 96.7 4.49999C89.8 2.39999 81.4 4.69999 77.3 10.7C73.5 16.3 74.5 24.9 79.8 29C70.4 23.4 63 30.7 63.9 38.6L128.1 39C130.3 38.9 133.4 38.9 135.4 38.1C137.4 37.3 139.6 35.7 139.5 32.5C139.7 29.6 137.5 27.2 134.8 26.6Z" fill="#EBEBEB"/>
<path d="M504.9 37.6C503 37.1 501 37.6 499.2 38.1C499.4 35.6 497.9 33 495.7 31.8C493.5 30.6 490.5 30.9 488.5 32.4C486.7 27.6 482.8 23.4 477.9 21.8C473 20.3 467 21.9 464.1 26.2C461.4 30.2 462.1 36.3 465.9 39.2C459.2 35.2 454 40.4 454.6 46.1L500.3 46.4C501.9 46.4 504 46.3 505.5 45.7C506.9 45.1 508.5 44 508.4 41.7C508.4 39.8 506.8 38.1 504.9 37.6Z" fill="#FAFAFA"/>
<path d="M32 120.8C32 183.4 33.8 234 33.8 234L708.7 232.9L646.1 156.2L542.6 172.3L382.9 199.6L354.1 209.3L277.6 193.9L32 120.8Z" fill="#EBEBEB"/>
<path d="M345.648 234.817C370.961 230.822 388.243 207.062 384.248 181.749C380.253 156.436 356.493 139.154 331.18 143.149C305.867 147.144 288.585 170.903 292.58 196.217C296.575 221.53 320.334 238.812 345.648 234.817Z" fill="#FF725E"/>
<g opacity="0.9">
<path d="M345.648 234.817C370.961 230.822 388.243 207.062 384.248 181.749C380.253 156.436 356.493 139.154 331.18 143.149C305.867 147.144 288.585 170.903 292.58 196.217C296.575 221.53 320.334 238.812 345.648 234.817Z" fill="white"/>
</g>
<path d="M338.4 230.4C361.265 230.4 379.8 211.865 379.8 189C379.8 166.135 361.265 147.6 338.4 147.6C315.535 147.6 297 166.135 297 189C297 211.865 315.535 230.4 338.4 230.4Z" fill="#FF725E"/>
<g opacity="0.6">
<path d="M338.4 230.4C361.265 230.4 379.8 211.865 379.8 189C379.8 166.135 361.265 147.6 338.4 147.6C315.535 147.6 297 166.135 297 189C297 211.865 315.535 230.4 338.4 230.4Z" fill="white"/>
</g>
<path d="M372.651 191.454C374.018 172.505 359.764 156.036 340.815 154.67C321.866 153.303 305.397 167.557 304.03 186.506C302.664 205.455 316.917 221.924 335.867 223.291C354.816 224.657 371.285 210.404 372.651 191.454Z" fill="#FF725E"/>
<g opacity="0.3">
<path d="M372.651 191.454C374.018 172.505 359.764 156.036 340.815 154.67C321.866 153.303 305.397 167.557 304.03 186.506C302.664 205.455 316.917 221.924 335.867 223.291C354.816 224.657 371.285 210.404 372.651 191.454Z" fill="white"/>
</g>
<path d="M338.4 216.6C353.643 216.6 366 204.243 366 189C366 173.757 353.643 161.4 338.4 161.4C323.157 161.4 310.8 173.757 310.8 189C310.8 204.243 323.157 216.6 338.4 216.6Z" fill="#FF725E"/>
<path d="M289.6 135.9C289.6 135.9 289.5 135.9 289.4 135.9C289.3 135.9 289 135.9 288.8 135.9C288.6 135.9 288.4 135.9 288.2 135.8C288.4 135.8 288.6 135.8 288.8 135.8C289 135.8 289.2 135.8 289.4 135.8C289.6 135.9 289.6 135.9 289.6 135.9Z" fill="#263238"/>
<path d="M289.8 135.7C289.8 135.7 289.7 135.7 289.6 135.7C289.5 135.7 289.2 135.7 289 135.7C288.8 135.7 288.6 135.7 288.4 135.6C288.6 135.6 288.8 135.6 289 135.6C289.2 135.6 289.4 135.6 289.6 135.6C289.7 135.7 289.8 135.7 289.8 135.7Z" fill="#263238"/>
<path d="M283.4 135.5C283.4 135.5 283.6 135 283.9 134.9C284.2 134.8 286.6 134.5 286.6 134.5L290.7 134.9C290.7 134.9 290.6 135.3 289.9 135.4C289.3 135.5 288.5 135.4 288.5 135.4C288.5 135.4 288.1 135.9 287.4 136.1C286.7 136.3 285.8 136.4 285.1 136C284.4 135.6 283.9 136.1 283.7 135.7C283.5 135.5 283.4 135.5 283.4 135.5Z" fill="#263238"/>
<path d="M291.3 128.8C291.2 129.2 291 129.6 290.8 129.9C290.7 130 290.7 130.1 290.5 130.2C290.7 129.6 290.9 129 290.9 128.3C290.8 128.5 290.8 128.7 290.7 128.9C290.6 129.1 290.6 129.2 290.5 129.4C290.3 129.8 290 130.1 289.7 130.4C289.5 130.6 289.3 130.9 289 131.1C288.5 131.5 288.4 131.5 287.8 131.9C287.6 132 287.3 132.2 287.1 132.4C287 132.5 287 132.6 287 132.7C286.7 133.5 286.2 134.3 285.5 134.9L286.9 135.2C287.5 135.1 288 134.8 288.3 134.4C288.7 134 288.9 133.5 289 132.9C289 132.8 289.1 132.6 289.2 132.5C289.3 132.4 289.4 132.4 289.5 132.3C289.7 132.2 289.8 132.1 289.9 131.9C289.8 132 289.7 132 289.5 132C289.8 131.8 290.2 131.5 290.5 131.2C290.8 130.9 291.1 130.6 291.2 130.3C291.1 130.5 290.9 130.6 290.8 130.7C291.1 130.2 291.3 129.5 291.3 128.8Z" fill="#263238"/>
<path d="M283.9 135.2C283.8 135.2 283.8 135.3 283.8 135.3C283.8 135.4 283.9 135.4 283.9 135.4C284 135.4 284 135.4 284 135.3C284.1 135.3 284.1 135.2 283.9 135.2Z" fill="#263238"/>
<path d="M283.4 135.4C283.4 135.4 283 135.5 282.9 135.7C282.8 135.9 282.8 136.1 282.8 136.1C282.8 136.1 282.9 136 283.1 135.9C283.4 135.8 283.6 135.7 283.6 135.7L283.4 135.4Z" fill="#263238"/>
<path d="M286.1 134.2C285.6 133.8 285.2 133.4 284.7 133C284.5 132.9 284.4 132.7 284.3 132.5C284 132.1 284 131.7 283.7 131.3C283.7 131.4 283.6 131.5 283.6 131.6C283.5 131.3 283.4 131.1 283.3 130.8C283.3 130.9 283.2 131 283.2 131.2C283.1 130.8 283 130.5 282.7 130.2C282.6 130.3 282.5 130.5 282.5 130.7C282.4 130.4 282.2 130.1 282.1 129.7C281.8 130.5 281.9 131.5 282.1 132.4C282.1 132.6 282.2 132.7 282.3 132.9C282.4 133.1 282.5 133.2 282.7 133.3C283.3 133.8 284.1 134.3 284.6 135L286.7 134.9C286.5 134.8 286.1 134.2 286.1 134.2Z" fill="#263238"/>
<path d="M289 133C289 132.9 289.1 132.7 289.2 132.6C289.3 132.5 289.4 132.5 289.5 132.4C289.7 132.3 289.8 132.2 289.9 132C289.8 132.1 289.7 132.1 289.5 132.1C289.8 131.9 290.2 131.6 290.5 131.3C290.8 131 291.1 130.7 291.2 130.4C291.1 130.6 290.9 130.7 290.8 130.8C291.2 130.2 291.4 129.6 291.4 128.9C291.3 129.3 291.1 129.7 290.9 130C290.8 130.1 290.8 130.2 290.6 130.3C290.8 129.7 291 129.1 291 128.4C290.9 128.6 290.9 128.8 290.8 129C290.7 129.2 290.7 129.3 290.6 129.5C290.4 129.9 290.1 130.2 289.8 130.5C289.6 130.7 289.3 131 289.1 131.2L290.3 130.6L289.7 131.3L290.4 131C290.4 131 289.3 131.9 289.1 132.4C288.9 132.9 289.1 133.2 289.1 133.2L289 133Z" fill="#263238"/>
<path d="M284.2 132.5C283.9 132.1 283.9 131.7 283.6 131.3C283.6 131.4 283.5 131.5 283.5 131.6C283.4 131.3 283.3 131.1 283.2 130.8C283.2 130.9 283.1 131 283.1 131.2C283 130.8 282.9 130.5 282.6 130.2C282.5 130.3 282.4 130.5 282.4 130.7C282.3 130.4 282.1 130.1 282 129.7C281.7 130.5 281.8 131.5 282 132.4C282 132.6 282.1 132.7 282.2 132.9L282.3 132.2C282.3 132.2 282.3 131.3 282.6 131.6C282.9 131.9 283.4 132.6 283.4 132.6L283.3 132C283.3 132 283.7 132.6 283.9 132.6C284.1 132.6 284.2 132.5 284.2 132.5Z" fill="#263238"/>
<path d="M287.1 132.6C287.1 132.7 287.1 132.7 287 132.8C286.9 132.9 286.9 133.1 286.8 133.3C286.7 133.5 286.6 133.7 286.4 134C286.3 134.1 286.2 134.3 286.2 134.4C286.2 134.5 286.1 134.5 286 134.6H285.9H285.8C285.1 134.7 284.5 134.8 284 134.8C283.9 134.8 283.8 134.9 283.7 134.9C283.6 135 283.6 135 283.5 135.1C283.4 135.2 283.4 135.3 283.4 135.3C283.4 135.3 283.4 135.2 283.5 135.2C283.5 135.1 283.6 135.1 283.6 135C283.7 134.9 283.8 134.9 283.9 134.8C284.4 134.7 285 134.7 285.7 134.6H285.8H285.9C286 134.5 286 134.5 286.1 134.4C286.2 134.3 286.3 134.1 286.3 134C286.4 133.7 286.6 133.5 286.7 133.3C286.8 133.1 286.9 132.9 286.9 132.8C287 132.7 287 132.7 287.1 132.6Z" fill="#263238"/>
<path d="M289.5 131.4C289.5 131.5 289.4 131.5 289.4 131.6C289.3 131.7 289.2 131.8 289.1 131.9C288.9 132 288.7 132.2 288.5 132.3C288.4 132.4 288.3 132.4 288.2 132.5C288.1 132.6 288 132.7 287.9 132.8C287.7 133 287.6 133.3 287.5 133.6C287.4 133.8 287.3 134.1 287.2 134.2C287.1 134.4 287 134.5 286.9 134.6L286.8 134.7C286.8 134.7 286.8 134.7 286.9 134.6C287 134.5 287.1 134.4 287.2 134.2C287.3 134 287.4 133.8 287.5 133.6C287.6 133.4 287.7 133.1 287.9 132.8C288 132.7 288.1 132.6 288.2 132.5C288.3 132.4 288.4 132.3 288.6 132.3C288.8 132.2 289 132 289.2 131.9C289.4 131.8 289.5 131.7 289.5 131.6C289.5 131.4 289.5 131.4 289.5 131.4Z" fill="#263238"/>
<path d="M286.8 135.8C286.8 135.8 286.7 135.9 286.6 135.8C286.5 135.8 286.4 135.7 286.4 135.7C286.4 135.7 286.5 135.7 286.6 135.8C286.7 135.8 286.8 135.7 286.8 135.8Z" fill="#263238"/>
<path d="M287.3 135.7C287.3 135.7 287.1 135.8 286.9 135.8C287.1 135.7 287.3 135.7 287.3 135.7Z" fill="#263238"/>
<path d="M288.8 135.9C289 136 289.2 136 289.4 136C289.2 135.9 289 135.9 288.8 135.9Z" fill="#263238"/>
<path d="M283 104C283 104 282.9 104 282.6 104C282.4 104 282 104 281.7 104C281.3 104 281 103.9 280.8 103.9C280.6 103.9 280.4 103.8 280.4 103.8C280.4 103.8 280.5 103.8 280.8 103.8C281.1 103.8 281.4 103.8 281.7 103.9C282 103.9 282.4 103.9 282.6 104C282.8 103.9 283 104 283 104Z" fill="#263238"/>
<path d="M283.2 103.6C283.2 103.6 283.1 103.6 282.8 103.6C282.6 103.6 282.2 103.6 281.9 103.6C281.5 103.6 281.2 103.5 281 103.5C280.8 103.5 280.6 103.4 280.6 103.4C280.6 103.4 280.7 103.4 281 103.4C281.3 103.4 281.6 103.4 281.9 103.5C282.2 103.5 282.6 103.5 282.8 103.6C283 103.5 283.2 103.6 283.2 103.6Z" fill="#263238"/>
<path d="M272.9 103.2C272.9 103.2 273.3 102.5 273.7 102.3C274.1 102.1 278 101.7 278 101.7L284.6 102.3C284.6 102.3 284.4 103 283.4 103.1C282.4 103.2 281.2 103.2 281.2 103.2C281.2 103.2 280.5 104 279.4 104.3C278.3 104.6 276.8 104.7 275.8 104.1C274.7 103.5 273.9 104.3 273.5 103.6C273.2 103.2 272.9 103.2 272.9 103.2Z" fill="#263238"/>
<path d="M285.6 92.7C285.4 93.3 285.1 93.9 284.8 94.5C284.7 94.7 284.6 94.9 284.4 94.9C284.8 94 285 93 285 92C284.9 92.3 284.8 92.7 284.6 93C284.5 93.2 284.4 93.5 284.3 93.7C284 94.3 283.5 94.8 283 95.3C282.6 95.7 282.3 96.1 281.9 96.5C281 97.2 281 97.1 280 97.8C279.7 98 279.2 98.3 279 98.6C278.9 98.7 278.8 98.9 278.8 99.1C278.3 100.4 277.5 101.7 276.4 102.6L278.6 103C279.5 102.9 280.3 102.4 280.9 101.7C281.5 101 281.8 100.2 282.1 99.3C282.2 99.1 282.2 98.9 282.3 98.7C282.4 98.6 282.6 98.5 282.7 98.4C283 98.2 283.2 98 283.3 97.7C283.1 97.8 282.9 97.9 282.7 97.9C283.2 97.5 283.8 97.1 284.2 96.6C284.7 96.2 285.1 95.7 285.3 95.1C285.1 95.3 284.9 95.5 284.6 95.7C285.2 94.8 285.6 93.8 285.6 92.7Z" fill="#263238"/>
<path d="M273.8 102.8H273.7V102.9C273.7 103 273.8 103.1 273.9 103.1C274 103.1 274.1 103 274.1 103C274.1 102.9 274.1 102.8 274 102.8C273.9 102.7 273.8 102.7 273.8 102.8Z" fill="#263238"/>
<path d="M273 103C273 103 272.4 103.1 272.2 103.4C272 103.7 272 104 272 104C272 104 272.1 103.8 272.5 103.7C272.9 103.5 273.4 103.5 273.4 103.5L273 103Z" fill="#263238"/>
<path d="M277.3 101.2C276.6 100.5 275.8 99.9 275.1 99.2C274.8 99 274.6 98.7 274.4 98.5C274 97.9 273.9 97.2 273.4 96.6C273.4 96.8 273.3 96.9 273.3 97.1C273.2 96.7 273 96.3 272.8 95.9C272.8 96.1 272.7 96.3 272.7 96.5C272.6 95.9 272.3 95.3 272 94.8C271.8 95 271.7 95.3 271.7 95.6C271.5 95.1 271.3 94.6 271 94.1C270.5 95.4 270.7 97 271.1 98.3C271.2 98.6 271.2 98.8 271.4 99.1C271.6 99.4 271.8 99.6 272 99.8C273 100.7 274.2 101.4 275 102.4L278.3 102.2C277.9 102.1 277.4 101.2 277.3 101.2Z" fill="#263238"/>
<path d="M281.9 99.3C282 99.1 282 98.9 282.1 98.7C282.2 98.6 282.4 98.5 282.5 98.4C282.8 98.2 283 98 283.1 97.7C282.9 97.8 282.7 97.9 282.5 97.9C283 97.5 283.6 97.1 284 96.6C284.5 96.2 284.9 95.7 285.1 95.1C284.9 95.3 284.7 95.5 284.4 95.7C285 94.8 285.4 93.7 285.4 92.6C285.2 93.2 284.9 93.8 284.6 94.4C284.5 94.6 284.4 94.8 284.2 94.8C284.6 93.9 284.8 92.9 284.8 91.9C284.7 92.2 284.6 92.6 284.4 92.9C284.3 93.1 284.2 93.4 284.1 93.6C283.8 94.2 283.3 94.7 282.8 95.2C282.4 95.6 282.1 96 281.7 96.4L283.6 95.5L282.6 96.7L283.7 96.2C283.7 96.2 282 97.7 281.7 98.4C281.4 99.1 281.7 99.6 281.7 99.6L281.9 99.3Z" fill="#263238"/>
<path d="M274.3 98.5C273.9 97.9 273.8 97.2 273.3 96.6C273.3 96.8 273.2 96.9 273.2 97.1C273.1 96.7 272.9 96.3 272.7 95.9C272.7 96.1 272.6 96.3 272.6 96.5C272.5 95.9 272.2 95.3 271.9 94.8C271.7 95 271.6 95.3 271.6 95.6C271.4 95.1 271.2 94.6 270.9 94.1C270.4 95.4 270.6 97 271 98.3C271.1 98.6 271.1 98.8 271.3 99.1L271.4 97.9C271.4 97.9 271.4 96.4 271.9 97C272.3 97.6 273.1 98.5 273.1 98.5L272.9 97.5C272.9 97.5 273.5 98.4 273.8 98.5C274.1 98.6 274.3 98.5 274.3 98.5Z" fill="#263238"/>
<path d="M278.8 98.7C278.8 98.8 278.7 98.9 278.7 99C278.6 99.2 278.5 99.5 278.3 99.8C278.1 100.1 277.9 100.5 277.7 100.9C277.6 101.1 277.5 101.3 277.3 101.5C277.2 101.6 277.1 101.7 277 101.8C276.9 101.8 276.9 101.9 276.8 101.9C276.7 101.9 276.7 101.9 276.6 101.9C275.5 102.1 274.5 102.2 273.8 102.3C273.6 102.3 273.5 102.4 273.4 102.5C273.3 102.6 273.2 102.7 273.2 102.8C273.1 103 273 103.1 273 103.1C273 103.1 273 103.1 273 103C273 103 273.1 102.9 273.1 102.8C273.2 102.7 273.2 102.6 273.3 102.5C273.4 102.4 273.5 102.3 273.7 102.3C274.4 102.2 275.4 102.1 276.5 101.9C276.6 101.9 276.6 101.9 276.7 101.9C276.8 101.9 276.8 101.9 276.9 101.9C277 101.8 277.1 101.7 277.1 101.6C277.2 101.4 277.4 101.2 277.5 101C277.7 100.6 277.9 100.2 278.1 99.9C278.3 99.6 278.4 99.3 278.5 99.1C278.7 98.9 278.8 98.8 278.8 98.7Z" fill="#263238"/>
<path d="M282.8 96.7C282.8 96.8 282.7 96.9 282.7 96.9C282.6 97 282.4 97.3 282.2 97.5C282 97.7 281.6 97.9 281.3 98.1C281.1 98.2 280.9 98.3 280.8 98.4C280.6 98.5 280.5 98.7 280.3 98.9C280 99.3 279.9 99.7 279.7 100.1C279.5 100.5 279.4 100.8 279.2 101.1C279 101.4 278.8 101.6 278.7 101.7C278.6 101.8 278.6 101.8 278.6 101.8H278.5C278.5 101.8 278.6 101.7 278.7 101.6C278.8 101.5 279 101.3 279.2 101C279.4 100.7 279.5 100.4 279.7 100C279.9 99.6 280 99.2 280.3 98.8C280.4 98.6 280.6 98.4 280.8 98.3C281 98.2 281.2 98.1 281.4 97.9C281.8 97.7 282.1 97.5 282.3 97.3C282.5 97.1 282.7 96.9 282.8 96.8C282.7 96.7 282.8 96.6 282.8 96.7Z" fill="#263238"/>
<path d="M278.4 103.7C278.4 103.7 278.2 103.8 278 103.8C277.8 103.8 277.6 103.6 277.6 103.6C277.6 103.6 277.8 103.7 278 103.7C278.2 103.7 278.4 103.6 278.4 103.7Z" fill="#263238"/>
<path d="M279.3 103.5C279.3 103.5 279 103.6 278.6 103.6C278.2 103.6 277.9 103.4 278 103.4C278 103.4 278.3 103.5 278.6 103.5C279 103.6 279.3 103.5 279.3 103.5Z" fill="#263238"/>
<path d="M281.6 103.9C281.3 103.9 280.9 103.9 280.7 103.8C280.5 103.8 280.3 103.8 280.3 103.8C280.3 103.8 280.4 103.8 280.7 103.9C280.9 103.9 281.3 103.9 281.6 103.9C282 104 282.3 104 282.5 104C282.7 104 282.9 104 282.9 104C282.9 104 282.8 104 282.5 104C282.3 103.9 282 103.9 281.6 103.9Z" fill="#263238"/>
<path d="M219.1 66.1C219.1 66.1 218.9 66.1 218.8 66.1C218.6 66.1 218.5 66.3 218.4 66.4C218.5 66.4 218.5 66.4 218.6 66.4C218.8 66.4 219 66.4 219.2 66.4C219.2 66.3 219.2 66.2 219.1 66.1Z" fill="#263238"/>
<path d="M222.6 67C221.9 66.9 221.2 66.7 220.5 66.5C220 66.9 219.7 67.5 219.2 67.9C219 68.1 218.7 68.2 218.5 68.4C218.2 68.7 218 69.1 217.9 69.4C217.5 70.4 217.2 71.5 217 72.5L217.7 71.6V72.2L218.7 70.6L218.8 71.1C218.8 71.1 220.5 69.6 221.1 69.1C221.7 68.6 222.3 67.9 222.3 67.9L222.6 67Z" fill="#263238"/>
<path d="M220.6 65.9C220.6 65.9 221 65.5 221.3 64.7C221.6 63.9 221.7 62.4 222.6 61.7C223.5 61.1 225.7 59.5 225.7 59.5L224.8 60.8L225.9 59.9C225.9 59.9 225.6 60.6 225 61.2L225.9 60.8C225.9 60.8 225.8 61.8 225.4 61.8C225.3 61.8 225.1 62.2 225.1 62.2L225.2 62.4C225.2 62.4 224.1 64.7 223.9 65.1C223.6 65.6 222.9 66.4 222.9 66.4L220.6 65.9Z" fill="#263238"/>
<path d="M219.1 66.2C219.1 66.2 219.1 65.8 219.8 65.8C220.4 65.8 220.7 65.9 220.7 65.9C220.7 65.9 222.5 66.4 222.8 66.5C223.1 66.6 224.9 66.2 224.9 66.2C224.9 66.2 225.7 67.7 224.6 68.7C223.5 69.7 222.9 69.3 222.9 69.3C222.9 69.3 222.8 68.1 222.3 67.8C222.3 67.8 221.5 67.8 221.1 67.6C220.7 67.4 220 66.7 219.8 66.6C219.6 66.5 219.2 66.6 219.1 66.5C219 66.3 219.1 66.2 219.1 66.2Z" fill="#263238"/>
<path d="M219.5 66.2C219.555 66.2 219.6 66.1552 219.6 66.1C219.6 66.0448 219.555 66 219.5 66C219.445 66 219.4 66.0448 219.4 66.1C219.4 66.1552 219.445 66.2 219.5 66.2Z" fill="#263238"/>
<path d="M225.1 62.3L225 62.1L225.3 61.7C225.7 61.6 225.8 60.7 225.8 60.7L224.9 61.1C225.5 60.6 225.8 59.8 225.8 59.8L224.7 60.7L225.6 59.4C225.6 59.4 223.4 61 222.5 61.6L223.9 61.1L223.6 61.8L224.7 61.3C224.7 61.3 224.5 61.6 224.6 62C224.9 62.4 225.1 62.3 225.1 62.3Z" fill="#263238"/>
<path d="M218.7 71L218.6 70.5L217.6 72.1V71.5L216.9 72.4C217.1 71.3 217.4 70.3 217.8 69.3V70.3L218.4 69.9V70.6L218.9 70.2L218.7 71Z" fill="#263238"/>
<path d="M224 68.2C224 68.2 223.9 68.2 223.8 68.1C223.7 68 223.5 68 223.3 67.9C222.9 67.7 222.7 67.5 222.7 67.5C222.7 67.5 223 67.7 223.4 67.9C223.6 68 223.8 68 223.9 68.1L224 68.2Z" fill="#263238"/>
<path d="M224.2 67.8C224.2 67.8 223.9 67.8 223.5 67.6C223.1 67.5 222.8 67.3 222.9 67.3C222.9 67.3 223.2 67.4 223.6 67.6C223.9 67.7 224.2 67.7 224.2 67.8Z" fill="#263238"/>
<path d="M222.5 67.7C222.5 67.7 222.5 67.7 222.4 67.7C222.3 67.7 222.2 67.8 222.1 67.8C222 67.8 221.8 67.8 221.7 67.8C221.5 67.8 221.4 67.7 221.2 67.6C220.9 67.4 220.6 67.2 220.4 67C220.3 66.9 220.2 66.8 220.2 66.8C220.2 66.7 220.1 66.7 220.1 66.7C220.1 66.7 220.2 66.8 220.4 67C220.6 67.2 220.9 67.4 221.2 67.6C221.4 67.7 221.5 67.8 221.7 67.8C221.9 67.8 222 67.8 222.1 67.8C222.3 67.7 222.5 67.7 222.5 67.7Z" fill="#263238"/>
<path d="M223.9 61.6C223.9 61.6 223.9 61.7 223.8 61.8C223.7 61.9 223.6 62 223.4 62.2C223.2 62.4 223 62.6 222.8 62.8C222.7 62.9 222.6 63 222.6 63.2C222.6 63.4 222.6 63.5 222.6 63.7C222.6 64.1 222.6 64.4 222.5 64.7C222.4 65 222.3 65.3 222.2 65.5C222.1 65.7 221.9 65.8 221.8 65.9L221.7 66C221.7 66 221.9 65.8 222.2 65.4C222.3 65.2 222.4 64.9 222.5 64.6C222.6 64.3 222.6 64 222.6 63.6C222.6 63.4 222.6 63.2 222.6 63.1C222.6 62.9 222.7 62.8 222.8 62.7C223 62.5 223.2 62.3 223.4 62.1C223.6 61.9 223.7 61.8 223.8 61.7C223.8 61.6 223.9 61.6 223.9 61.6Z" fill="#263238"/>
<path d="M224.9 62.6C224.8 62.7 224.7 62.8 224.6 62.8C224.4 62.9 224.1 63.1 223.8 63.2C223.5 63.3 223.1 63.4 222.9 63.4C222.8 63.4 222.7 63.4 222.6 63.4C222.5 63.4 222.5 63.4 222.5 63.4C222.5 63.4 222.6 63.4 222.9 63.3C223.1 63.3 223.4 63.2 223.8 63.1C224.1 63 224.4 62.9 224.6 62.8C224.8 62.7 224.9 62.6 224.9 62.6Z" fill="#263238"/>
<path d="M225 61.7C224.9 61.8 224.8 61.9 224.7 62C224.6 62.1 224.5 62.1 224.3 62.2C224.2 62.3 224 62.3 223.8 62.4C223.5 62.5 223.1 62.6 222.9 62.7C222.7 62.8 222.5 62.8 222.5 62.8C222.5 62.8 222.6 62.7 222.9 62.6C223.1 62.5 223.4 62.4 223.8 62.3C224 62.2 224.1 62.2 224.3 62.1C224.4 62 224.6 62 224.7 61.9C224.9 61.9 225 61.7 225 61.7Z" fill="#263238"/>
<path d="M224.1 63.8C224.1 63.8 224 63.9 223.9 63.9C223.8 64 223.6 64 223.3 64.1C223.1 64.1 222.9 64.2 222.7 64.2C222.5 64.2 222.5 64.1 222.5 64.1C222.5 64.1 222.6 64.1 222.7 64.1C222.8 64.1 223 64 223.3 64C223.5 63.9 223.7 63.9 223.9 63.9C224.1 63.9 224.1 63.8 224.1 63.8Z" fill="#263238"/>
<path d="M218.2 70.2V70.1C218.2 70 218.3 69.9 218.4 69.7C218.5 69.6 218.6 69.4 218.8 69.2C219 69.1 219.2 68.9 219.5 68.8C219.7 68.7 220 68.6 220.2 68.4C220.4 68.3 220.5 68.1 220.7 68C220.9 67.7 221 67.5 221 67.5C221 67.5 221 67.6 220.9 67.6C220.9 67.7 220.8 67.8 220.7 67.9C220.6 68 220.4 68.2 220.2 68.3C220 68.4 219.8 68.6 219.5 68.7C219.3 68.8 219 68.9 218.8 69.1C218.6 69.2 218.5 69.4 218.4 69.5C218.2 70 218.2 70.2 218.2 70.2Z" fill="#263238"/>
<path d="M219.2 70.4C219.2 70.4 219.3 70.1 219.3 69.7C219.3 69.3 219.2 69 219.3 69C219.3 69 219.4 69.3 219.4 69.7C219.3 70.2 219.2 70.5 219.2 70.4Z" fill="#263238"/>
<path d="M219.9 69.8C219.9 69.8 219.9 69.6 219.9 69.3C219.9 69 219.8 68.8 219.9 68.8C219.9 68.8 220 69 220 69.3C220 69.6 219.9 69.8 219.9 69.8Z" fill="#263238"/>
<path d="M220.5 69.3C220.5 69.3 220.5 69.1 220.4 68.8C220.3 68.5 220.3 68.3 220.3 68.3C220.3 68.3 220.4 68.5 220.5 68.8C220.6 69.1 220.6 69.3 220.5 69.3Z" fill="#263238"/>
<path d="M221.2 68.3C221.2 68.3 221.1 68.3 221 68.2C220.9 68.1 220.9 68 220.9 68C220.9 68 221 68 221.1 68.1C221.2 68.2 221.3 68.3 221.2 68.3Z" fill="#263238"/>
<path d="M222.9 66.1C222.9 66.1 222.7 66 222.5 65.8C222.8 65.9 222.9 66 222.9 66.1Z" fill="#263238"/>
<path d="M223.7 65C223.7 65 223.4 65.2 223 65.2C223.4 65.1 223.7 65 223.7 65Z" fill="#263238"/>
<path d="M315.8 104.8C315.8 104.8 315.6 104.8 315.5 104.8C315.3 104.8 315.2 104.9 315.1 105.1H315.2C315.4 105.1 315.5 105.1 315.7 105.1C315.8 104.9 315.8 104.8 315.8 104.8Z" fill="#263238"/>
<path d="M318.8 105.5C318.2 105.4 317.6 105.3 317 105.1C316.6 105.5 316.3 106 315.9 106.3C315.7 106.4 315.5 106.5 315.3 106.7C315 106.9 314.9 107.3 314.8 107.6C314.5 108.5 314.2 109.4 314 110.3L314.6 109.5V110L315.4 108.6L315.5 109C315.5 109 316.9 107.7 317.5 107.3C318 106.8 318.5 106.3 318.5 106.3L318.8 105.5Z" fill="#263238"/>
<path d="M317.1 104.5C317.1 104.5 317.4 104.1 317.7 103.5C318 102.8 318 101.5 318.8 100.9C319.6 100.3 321.4 99 321.4 99L320.6 100.1L321.6 99.3C321.6 99.3 321.3 99.9 320.8 100.4L321.6 100C321.6 100 321.5 100.8 321.2 100.9L320.9 101.2L321 101.4C321 101.4 320.1 103.3 319.8 103.7C319.6 104.1 318.9 104.9 318.9 104.9L317.1 104.5Z" fill="#263238"/>
<path d="M315.7 104.8C315.7 104.8 315.7 104.4 316.3 104.4C316.9 104.4 317.1 104.5 317.1 104.5C317.1 104.5 318.7 104.9 318.9 105C319.1 105.1 320.7 104.7 320.7 104.7C320.7 104.7 321.4 106 320.5 106.8C319.5 107.6 319 107.3 319 107.3C319 107.3 318.9 106.3 318.5 106C318.5 106 317.8 106 317.5 105.8C317.2 105.6 316.5 105 316.4 105C316.3 104.9 315.9 105 315.8 104.9C315.7 104.9 315.7 104.8 315.7 104.8Z" fill="#263238"/>
<path d="M316.2 104.7C316.2 104.8 316.1 104.8 316.1 104.8C316 104.8 316 104.7 316 104.7C316 104.6 316.1 104.6 316.1 104.6C316.2 104.6 316.2 104.7 316.2 104.7Z" fill="#263238"/>
<path d="M320.9 101.5L320.8 101.3C320.8 101.3 321 101 321.1 101C321.4 100.9 321.5 100.1 321.5 100.1L320.7 100.5C321.2 100 321.5 99.4 321.5 99.4L320.5 100.2L321.3 99.1C321.3 99.1 319.4 100.4 318.7 101L319.9 100.6L319.7 101.2L320.7 100.8C320.7 100.8 320.5 101.1 320.6 101.4C320.7 101.6 320.9 101.5 320.9 101.5Z" fill="#263238"/>
<path d="M315.4 109L315.3 108.6L314.5 110V109.5L313.9 110.3C314.1 109.4 314.4 108.5 314.7 107.6V108.4L315.2 108.1V108.7L315.6 108.3L315.4 109Z" fill="#263238"/>
<path d="M319.9 106.5C319.9 106.5 319.8 106.5 319.7 106.4C319.6 106.4 319.4 106.3 319.3 106.2C319 106 318.7 105.8 318.8 105.8C318.8 105.8 319 106 319.4 106.1C319.6 106.2 319.7 106.2 319.8 106.3C319.9 106.4 320 106.5 319.9 106.5Z" fill="#263238"/>
<path d="M320.2 106.2C320.2 106.2 319.9 106.2 319.6 106C319.3 105.9 319 105.7 319 105.7C319 105.7 319.3 105.8 319.6 105.9C319.9 106.1 320.2 106.1 320.2 106.2Z" fill="#263238"/>
<path d="M318.7 106.1C318.6 106.2 318.5 106.2 318.4 106.2C318.3 106.2 318.2 106.2 318 106.2C317.9 106.2 317.7 106.1 317.6 106C317.3 105.8 317.1 105.6 316.9 105.5C316.8 105.4 316.8 105.4 316.7 105.3L316.6 105.2C316.6 105.2 316.7 105.3 316.9 105.4C317.1 105.5 317.3 105.7 317.6 105.9C317.7 106 317.9 106.1 318 106.1C318.1 106.1 318.3 106.1 318.4 106.1C318.5 106.1 318.7 106.1 318.7 106.1Z" fill="#263238"/>
<path d="M319.9 100.8C319.9 100.8 319.9 100.8 319.8 100.9C319.7 101 319.6 101.1 319.5 101.2C319.4 101.3 319.2 101.5 319 101.7C318.9 101.8 318.8 101.9 318.8 102C318.8 102.1 318.8 102.3 318.8 102.4C318.8 102.7 318.8 103 318.7 103.3C318.6 103.6 318.5 103.8 318.4 104C318.3 104.2 318.2 104.3 318.1 104.4L318 104.5C318 104.5 318.2 104.4 318.4 104C318.5 103.8 318.6 103.6 318.7 103.4C318.8 103.1 318.8 102.9 318.8 102.5C318.8 102.3 318.8 102.2 318.8 102C318.8 101.9 318.9 101.7 319 101.6C319.2 101.4 319.4 101.2 319.5 101.1C319.6 101 319.8 100.9 319.8 100.8C319.8 100.9 319.9 100.8 319.9 100.8Z" fill="#263238"/>
<path d="M320.8 101.7C320.7 101.8 320.6 101.8 320.5 101.9C320.3 102 320.1 102.1 319.8 102.2C319.5 102.3 319.2 102.3 319 102.4C318.9 102.4 318.8 102.4 318.8 102.4C318.7 102.4 318.7 102.4 318.7 102.4C318.7 102.4 318.8 102.4 319 102.4C319.2 102.4 319.5 102.3 319.8 102.2C320.1 102.1 320.3 102 320.5 101.9C320.7 101.8 320.8 101.7 320.8 101.7Z" fill="#263238"/>
<path d="M320.8 101C320.7 101.1 320.7 101.2 320.6 101.2C320.5 101.3 320.4 101.3 320.3 101.4C320.2 101.5 320 101.5 319.9 101.6C319.6 101.7 319.3 101.8 319.1 101.9C318.9 102 318.8 102 318.8 102C318.8 102 318.9 101.9 319.1 101.9C319.3 101.8 319.6 101.7 319.9 101.6C320 101.5 320.2 101.5 320.3 101.4C320.4 101.3 320.5 101.3 320.6 101.2C320.8 101.1 320.8 101 320.8 101Z" fill="#263238"/>
<path d="M320.1 102.7C320.1 102.7 320.1 102.8 319.9 102.8C319.8 102.9 319.6 102.9 319.4 102.9C319.2 102.9 319 103 318.9 103C318.8 103 318.7 103 318.7 102.9C318.7 102.9 318.8 102.9 318.9 102.9C319 102.9 319.2 102.8 319.4 102.8C319.6 102.8 319.8 102.7 319.9 102.7C320 102.8 320.1 102.7 320.1 102.7Z" fill="#263238"/>
<path d="M315 108.2C315 108.2 315 108.2 315 108.1C315 108 315.1 107.9 315.2 107.8C315.3 107.7 315.4 107.5 315.6 107.4C315.8 107.3 316 107.2 316.2 107.1C316.4 107 316.6 106.9 316.8 106.8C317 106.7 317.1 106.6 317.2 106.4C317.4 106.2 317.5 106 317.5 106C317.5 106 317.5 106 317.4 106.1C317.4 106.2 317.3 106.3 317.2 106.4C317.1 106.5 317 106.7 316.8 106.8C316.6 106.9 316.4 107 316.2 107.1C316 107.2 315.8 107.3 315.6 107.4C315.4 107.5 315.3 107.6 315.2 107.8C315 108.1 315 108.2 315 108.2Z" fill="#263238"/>
<path d="M315.8 108.5C315.8 108.5 315.9 108.3 315.9 107.9C315.9 107.6 315.8 107.3 315.9 107.3C315.9 107.3 316 107.5 316 107.9C315.9 108.2 315.8 108.5 315.8 108.5Z" fill="#263238"/>
<path d="M316.5 107.9C316.5 107.9 316.5 107.7 316.5 107.5C316.5 107.3 316.5 107.1 316.5 107.1C316.5 107.1 316.6 107.3 316.6 107.5C316.5 107.7 316.5 107.9 316.5 107.9Z" fill="#263238"/>
<path d="M317.6 106.6C317.6 106.6 317.5 106.6 317.4 106.5C317.3 106.4 317.3 106.4 317.3 106.4C317.3 106.4 317.4 106.4 317.5 106.5C317.6 106.5 317.6 106.6 317.6 106.6Z" fill="#263238"/>
<path d="M319.1 104.7C319.1 104.7 318.9 104.6 318.7 104.5C318.5 104.4 318.4 104.2 318.4 104.2C318.4 104.2 318.6 104.3 318.8 104.4C318.9 104.5 319.1 104.7 319.1 104.7Z" fill="#263238"/>
<g opacity="0.2">
<path d="M275.2 270.4C275.5 270.5 275.9 270.6 276.3 270.7L276.2 270.2C275.8 270.3 275.5 270.4 275.2 270.4Z" fill="#263238"/>
<path d="M228.8 266.7C229.1 266.8 229.5 266.9 229.9 267L229.8 266.5C229.4 266.6 229.1 266.7 228.8 266.7Z" fill="#263238"/>
<path d="M174.4 266.7H174.5C174.5 266.7 174.5 266.7 174.5 266.6L174.4 266.7Z" fill="#263238"/>
<path d="M182.7 265.9L183.5 266.1L183.4 265.8L182.7 265.9Z" fill="#263238"/>
<path d="M309 270.2L308.9 270.5C309.1 270.5 309.2 270.6 309.4 270.6L309.3 270.1C309.2 270.1 309.1 270.2 309 270.2Z" fill="#263238"/>
<path d="M187.6 266.5V266.3L186.9 266.5L188.2 266.8V267.1L188.6 267V266.8L187.6 266.5Z" fill="#263238"/>
<path d="M126 241.3L7.09998 236.8V258.7C7.09998 258.7 69.6 259.5 135.3 260.4C135.6 262 136 264.2 136.5 266.8C136.8 266.9 137.2 267 137.6 267.1C137.3 267.1 137 267.2 136.7 267.2H136.6V267.3C137 269.9 137.4 272.8 137.9 275.8L138 276.2L138.1 275.8C138.2 275.4 138.3 275.1 138.5 274.7C139.1 273 139.6 271.3 140.1 269.7V269.6H140C139.6 269.5 139.2 269.4 138.9 269.3C139.3 269.2 139.7 269.2 140.1 269.1H140.2C140.8 267.2 141.4 265.4 141.9 263.8L142.1 264.9L143.2 265.2L142.2 265.3L143.3 272.1L144.9 267.2L143.8 266.9L145 266.7L146.6 262L145.2 261.6L146.7 261.3L147 260.5C147.8 260.5 148.5 260.5 149.3 260.5L150.3 265L152.1 265.5L150.5 265.7L152.2 275.4L154.8 268.5L152.9 268L154.9 267.7L156.8 262.7L157.3 265L158.4 265.3L157.4 265.4L158.5 271.2L160.1 267L159 266.7L160.2 266.5L161.8 262.4L160.4 262.1L161.9 261.9L162.4 260.7C162.9 260.7 163.3 260.7 163.8 260.7C164.1 262 164.5 263.7 164.9 265.7C165.2 265.8 165.6 265.9 166 266C165.7 266 165.4 266.1 165.1 266.1H165V266.2C165.4 268.4 165.8 270.9 166.3 273.5L166.4 273.8L166.5 273.5C166.6 273.2 166.7 272.9 166.9 272.6C167.5 271.1 168 269.7 168.5 268.3V268.2H168.4C168 268.1 167.6 268 167.3 267.9C167.7 267.8 168.1 267.8 168.5 267.7H168.6C169.3 265.8 170 264.1 170.6 262.6H170.5C170 262.5 169.4 262.4 168.9 262.3C169.5 262.2 170 262.1 170.5 262C170.6 261.8 170.6 261.6 170.7 261.4L171.5 264.7L172.6 265L171.6 265.1L172.7 270.9L174.3 266.7L173.2 266.4L174.4 266.2L175.2 264.1C175.3 264.4 175.3 264.7 175.4 265C175.7 265.1 176 265.2 176.3 265.2C176 265.2 175.8 265.3 175.5 265.3H175.4C175.7 267.2 176.1 269.4 176.5 271.6L176.6 271.9L176.7 271.6C176.8 271.3 176.9 271.1 177 270.8C177.5 269.5 178 268.3 178.4 267.1V267H178.3C178 266.9 177.6 266.8 177.3 266.8C177.6 266.8 177.8 266.7 178.1 266.7V266.9L178.2 266.6C178.2 266.6 178.2 266.6 178.3 266.6C178.9 265.2 179.4 263.8 179.8 262.7L180 263.5L180.9 263.7L180 263.8L180.9 268.8L182.3 265.2L181.3 264.9L182.3 264.7L183.4 261.9L183.9 264L184.9 264.3L184 264.4L185 269.8L186.5 265.9L185.4 265.6L186.5 265.4L187.6 262.5L188.3 266.3L188.9 266.5L188.3 266.6L189 270.3L191.3 264.3L189.7 263.9L191.4 263.6L192.5 260.8C192.8 260.8 193.2 260.8 193.5 260.8L193.6 261.2L194.5 261.4L193.6 261.5L194.5 266.5L195.9 262.9L194.9 262.6L195.9 262.4L196.6 260.6C197.6 260.6 198.7 260.6 199.7 260.6C199.8 260.9 199.9 261.3 199.9 261.6C200.2 261.7 200.5 261.8 200.8 261.8C200.5 261.8 200.3 261.9 200 261.9H199.9C200.2 263.8 200.6 266 201 268.2L201.1 268.5L201.2 268.2C201.3 267.9 201.4 267.7 201.5 267.4C202 266.1 202.5 264.9 202.9 263.7V263.6H202.8C202.5 263.5 202.1 263.4 201.8 263.4C202.2 263.3 202.5 263.3 202.8 263.2C203.2 262.3 203.5 261.4 203.8 260.5C204.3 260.5 204.8 260.5 205.4 260.5L206.3 260.7L205.4 260.8L206.3 265.8L207.7 262.2L206.7 261.9L207.7 261.7L208.2 260.4C209.1 260.4 209.9 260.4 210.8 260.4L211.2 262.4L212 260.4C213.3 260.4 214.7 260.4 216 260.5L217.2 267.2L219.1 262.2L217.7 261.9L219.1 261.7L219.5 260.6C220.9 260.6 222.3 260.6 223.7 260.7C223.9 261.7 224.2 262.8 224.5 264C224.8 264.1 225.1 264.2 225.4 264.2C225.1 264.2 224.9 264.3 224.6 264.3H224.5C224.8 266.2 225.2 268.4 225.6 270.6L225.7 270.9L225.8 270.6C225.9 270.3 226 270.1 226.1 269.8C226.6 268.5 227.1 267.3 227.5 266.1V266H227.4C227.1 265.9 226.7 265.8 226.4 265.8C226.8 265.7 227.1 265.7 227.4 265.6C228 264.2 228.5 262.8 228.9 261.7L229.1 262.5L230 262.7L229.1 262.8L230 267.8L231.4 264.2L230.4 263.9L231.4 263.7L232.6 260.5C234.1 260.5 235.7 260.5 237.2 260.6L237.9 260.8L236.5 260.9L238 269.3L240.3 263.3L238.7 262.9L240.4 262.6L241.2 260.6C241.7 260.6 242.2 260.6 242.7 260.6L243.6 265.6L245 262L244 261.7L245 261.5L245.4 260.5C246.6 260.5 247.8 260.5 249 260.5C249 260.6 249 260.7 249.1 260.7C249.4 260.8 249.7 260.9 250 260.9C249.7 260.9 249.5 261 249.2 261H249.1C249.4 262.9 249.8 265.1 250.2 267.3L250.3 267.6L250.4 267.3C250.5 267 250.6 266.8 250.7 266.5C251.2 265.2 251.7 264 252.1 262.8V262.7H252C251.7 262.6 251.3 262.5 251 262.5C251.4 262.4 251.7 262.4 252 262.3C252.3 261.6 252.5 261 252.7 260.4C253.4 260.4 254.1 260.4 254.7 260.4L255.5 265L256.9 261.4L255.9 261.1L256.9 260.9L257.1 260.3C258.1 260.3 259.1 260.3 260.1 260.3L260.3 261.5L260.8 260.3C262.3 260.3 263.8 260.3 265.3 260.4L266.4 266.3L268.3 261.3L266.9 261L268.3 260.8L268.4 260.5C268.5 260.5 268.6 260.5 268.8 260.5C268.9 260.8 268.9 261.1 269 261.4C269.3 262.6 269.7 264.3 270.1 266.3C270.4 266.4 270.7 266.5 271 266.5C270.7 266.5 270.5 266.6 270.2 266.6H270.1C270.4 268.5 270.8 270.7 271.2 272.9L271.3 273.2L271.4 272.9C271.5 272.6 271.6 272.4 271.7 272.1C272.2 270.8 272.7 269.6 273.1 268.4V268.3H273C272.7 268.2 272.3 268.1 272 268.1C272.4 268 272.7 268 273 267.9C273.6 266.5 274.1 265.1 274.5 264L274.7 264.8L275.6 265L274.7 265.1L275.6 270.1L277 266.5L276 266.2L277 266L278.4 262.5L277.2 262.2L278.5 262L279.2 260.3C280 260.3 280.8 260.3 281.6 260.3L282.1 262.6L283.7 263L282.3 263.1L283.8 271.5L286.1 265.5L284.5 265.1L286.2 264.8L287.9 260.5L288.4 262.5L289.3 262.7L288.4 262.8L289.3 267.8L290.7 264.2L289.7 263.9L290.7 263.7L292.1 260.2C292.8 260.2 293.4 260.2 294.1 260.2C294.3 261 294.5 262 294.7 263C295 263.1 295.3 263.2 295.6 263.2C295.3 263.2 295.1 263.3 294.8 263.3H294.7C295 265.2 295.4 267.4 295.8 269.6L295.9 269.9L296 269.6C296.1 269.3 296.2 269.1 296.3 268.8C296.8 267.5 297.3 266.3 297.7 265.1V265H297.6C297.3 264.9 296.9 264.8 296.6 264.8C297 264.7 297.3 264.7 297.6 264.6C298.2 263 298.8 261.5 299.3 260.2C299.5 260.2 299.6 260.2 299.8 260.2L300.2 262L301.1 262.2L300.2 262.3L301.1 267.3L302.2 264.4C302.3 264.7 302.4 265.1 302.4 265.5C302.7 265.6 303 265.7 303.3 265.7C303 265.7 302.8 265.8 302.5 265.8H302.4C302.7 267.7 303.1 269.9 303.5 272.1L303.6 272.4L303.7 272.1C303.8 271.8 303.9 271.6 304 271.3C304.5 270 305 268.8 305.4 267.6V267.5H305.3C305 267.4 304.6 267.3 304.3 267.3C304.7 267.2 305 267.2 305.3 267.1C305.9 265.7 306.4 264.3 306.8 263.2L307 264L307.9 264.2L307 264.3L307.9 269.3L309.3 265.7L308.3 265.4L309.3 265.2L310.4 262.4L311.1 266.5L311.4 266.6H311.1L311.4 268.5L313.3 263.5L311.9 263.2L313.3 263L314 261.2L314.2 261.9L315.8 262.3L314.4 262.4L315.9 270.8L318.2 264.8L316.6 264.4L318.3 264.1L319.8 260.2C319.9 260.2 320 260.2 320 260.2L320.4 261.8L321.3 262L320.4 262.1L321.3 267.1L322.7 263.5L321.7 263.2L322.7 263L323.8 260.1C324.6 260.1 325.4 260.1 326.1 260.1C326.3 260.8 326.4 261.5 326.6 262.3C326.9 262.4 327.2 262.5 327.5 262.5C327.2 262.5 327 262.6 326.7 262.6H326.6C326.9 264.5 327.3 266.7 327.7 268.9L327.8 269.2L327.9 268.9C328 268.6 328.1 268.4 328.2 268.1C328.7 266.8 329.2 265.6 329.6 264.4V264.3H329.5C329.2 264.2 328.8 264.1 328.5 264.1C328.9 264 329.2 264 329.5 263.9C330 262.5 330.5 261.2 331 260C331.3 260 331.6 260 331.8 260L332.1 261.2L333 261.4L332.1 261.5L333 266.5L334.4 262.9L333.4 262.6L334.4 262.4L335.4 259.9C336 259.9 336.7 259.9 337.3 259.9L337.9 263.1L339 260.3L338.2 260.1L339 260V259.9C340.3 259.9 341.6 259.9 342.9 260L343.1 260.7L344 260.9L343.2 261L344 265.7L345.3 262.3L344.4 262.1L345.4 262L346.2 260.1C347.3 259.7 452.9 255.3 455.3 255.4C451.8 258.3 126 241.3 126 241.3ZM140.6 262.8C141 262.7 141.4 262.7 141.7 262.6L141.8 263.1C141.4 263 141 262.9 140.6 262.8Z" fill="#263238"/>
<path d="M303.8 271.5L304.3 271.7C304.3 271.6 304.3 271.5 304.3 271.5H303.8Z" fill="#263238"/>
<path d="M313.4 269.2L312.3 269.4L313.1 269.6L314 269.5V269.4L313.4 269.2Z" fill="#263238"/>
</g>
<path d="M111.7 257.1C111.7 257.1 464.9 258.8 460 258.8C455.1 258.8 7.09998 221 7.09998 221V257.1H111.7Z" fill="#263238"/>
<path d="M210.9 229.5L211.9 234.8L210.9 235L211.9 235.3L212.9 240.5L211.6 240.7L212.9 241.2L213.6 244.5H207.5L209.3 237L210.3 236.8L209.5 236.5L210.9 229.5Z" fill="#263238"/>
<path d="M221.9 228.6L223.2 235.9L221.9 236.2L223.2 236.7L224.6 243.7L222.9 244.1L224.6 244.7L225.5 249.3H217.3L219.7 238.9L221.1 238.6L219.9 238.3L221.9 228.6Z" fill="#263238"/>
<path d="M215.4 234.7L216.2 238.8L215.4 239L216.2 239.2L217 243.2L216 243.4L217 243.8L217.5 246.4H212.8L214.2 240.5L214.9 240.3L214.3 240.2L215.4 234.7Z" fill="#263238"/>
<path d="M198.7 227.8L199.7 233.1L198.7 233.3L199.7 233.7L200.7 238.8L199.5 239.1L200.7 239.5L201.4 242.9H195.4L197.2 235.3L198.1 235.1L197.3 234.9L198.7 227.8Z" fill="#263238"/>
<path d="M185.3 223.5L186.3 228.8L185.3 229L186.3 229.3L187.4 234.5L186.1 234.7L187.4 235.2L188 238.5H182L183.8 231L184.8 230.8L183.9 230.5L185.3 223.5Z" fill="#263238"/>
<path d="M188 247.1L191 234.6L192.6 234.2L191.2 233.8L193.6 222.1L195.3 230.9L193.6 231.3L195.3 231.8L196.9 240.4L194.9 240.8L196.9 241.5L198.1 247.1" fill="#263238"/>
<path d="M201.5 244.5L203.7 235.1L204.9 234.8L203.9 234.5L205.7 225.6L206.9 232.3L205.7 232.6L206.9 233L208.2 239.4L206.6 239.8L208.2 240.3L209 244.5" fill="#263238"/>
<path d="M209 244.5C209 244.4 209 244.3 208.9 244.2C208.9 244 208.8 243.7 208.7 243.4C208.5 242.7 208.3 241.6 208.1 240.3C207.6 240.1 207.1 240 206.5 239.8L206.3 239.7H206.5C207 239.6 207.5 239.5 208.1 239.4V239.5C207.7 237.6 207.3 235.4 206.8 233L206.9 233.1C206.5 233 206.1 232.8 205.6 232.7L205.3 232.6L205.6 232.5C206 232.4 206.4 232.3 206.9 232.2L206.8 232.3C206.5 230.6 206.1 228.7 205.8 226.9C205.7 226.5 205.6 226.1 205.6 225.7H205.8C205.2 228.9 204.5 231.9 204 234.6L203.9 234.5C204.3 234.6 204.6 234.7 205 234.8L205.3 234.9L205 235C204.6 235.1 204.2 235.2 203.8 235.3V235.2C203.1 238.1 202.5 240.4 202.1 242.1C201.9 242.9 201.7 243.6 201.6 244C201.5 244.2 201.5 244.4 201.5 244.5C201.5 244.6 201.5 244.7 201.4 244.7C201.4 244.7 201.4 244.6 201.4 244.5C201.4 244.4 201.5 244.2 201.5 244C201.6 243.5 201.8 242.9 201.9 242.1C202.3 240.4 202.8 238.1 203.5 235.2C203.9 235.1 204.3 235 204.7 234.9V235C204.4 234.9 204 234.8 203.6 234.7H203.5V234.6C204 231.9 204.6 228.9 205.3 225.7L205.4 225.3L205.5 225.7C205.6 226.1 205.7 226.5 205.7 226.9C206.1 228.8 206.4 230.6 206.7 232.3V232.4H206.6C206.2 232.5 205.7 232.6 205.3 232.7V232.5C205.7 232.6 206.2 232.8 206.6 232.9C207.1 235.3 207.5 237.5 207.8 239.4V239.5H207.7C207.1 239.6 206.6 239.7 206.1 239.8V239.7C206.7 239.9 207.2 240.1 207.7 240.3C208 241.6 208.2 242.7 208.3 243.4C208.4 243.8 208.4 244 208.5 244.2C209 244.3 209 244.4 209 244.5Z" fill="#263238"/>
<path d="M176.9 238L179.1 228.5L180.3 228.2L179.3 227.9L181.1 219.1L182.3 225.7L181.1 226L182.3 226.4L183.6 232.9L182 233.2L183.6 233.8L184.4 238" fill="#263238"/>
<path d="M184.4 238C184.4 237.9 184.4 237.8 184.3 237.7C184.3 237.5 184.2 237.2 184.1 236.9C183.9 236.2 183.7 235.1 183.5 233.8C183 233.6 182.5 233.5 181.9 233.3L181.7 233.2H181.9C182.4 233.1 182.9 233 183.5 232.9V233C183.1 231.1 182.7 228.9 182.2 226.5L182.3 226.6C181.9 226.5 181.5 226.3 181 226.2L180.7 226.1L181 226C181.4 225.9 181.8 225.8 182.3 225.7L182.2 225.8C181.9 224.1 181.5 222.2 181.2 220.4C181.1 220 181 219.6 181 219.2H181.2C180.6 222.4 179.9 225.4 179.4 228.1L179.3 228C179.7 228.1 180 228.2 180.4 228.3L180.7 228.4L180.4 228.5C180 228.6 179.6 228.7 179.2 228.8V228.7C178.5 231.6 177.9 233.9 177.5 235.6C177.3 236.4 177.1 237.1 177 237.5C176.9 237.7 176.9 237.9 176.9 238C176.9 238.1 176.9 238.2 176.8 238.2C176.8 238.2 176.8 238.1 176.8 238C176.8 237.9 176.9 237.7 176.9 237.5C177 237 177.2 236.4 177.3 235.6C177.7 233.9 178.2 231.6 178.9 228.7C179.3 228.6 179.7 228.5 180.1 228.4V228.5C179.8 228.4 179.4 228.3 179 228.2H178.9V228.1C179.4 225.4 180 222.4 180.7 219.2L180.8 218.8L180.9 219.2C181 219.6 181.1 220 181.1 220.4C181.5 222.3 181.8 224.1 182.1 225.8V225.9H182C181.6 226 181.1 226.1 180.7 226.2V226C181.1 226.1 181.6 226.3 182 226.4C182.5 228.8 182.9 231 183.2 232.9V233H183.1C182.5 233.1 182 233.2 181.5 233.3V233.2C182.1 233.4 182.6 233.6 183.1 233.8C183.4 235.1 183.6 236.2 183.7 236.9C183.8 237.3 183.8 237.5 183.9 237.7C184.4 237.8 184.4 237.9 184.4 238Z" fill="#263238"/>
<path d="M260.7 235L261.7 240.2L260.7 240.5L261.7 240.8L262.7 246L261.4 246.2L262.7 246.7L263.4 250H257.3L259.1 242.5L260.1 242.2L259.3 242L260.7 235Z" fill="#263238"/>
<path d="M271.7 234.1L273.1 241.3L271.7 241.7L273.1 242.1L274.4 249.2L272.7 249.6L274.4 250.2L275.4 254.8H267.1L269.5 244.4L270.9 244.1L269.7 243.8L271.7 234.1Z" fill="#263238"/>
<path d="M265.2 240.2L266 244.3L265.2 244.5L266 244.7L266.8 248.7L265.8 248.9L266.8 249.3L267.3 251.9H262.6L264 246L264.8 245.8L264.1 245.7L265.2 240.2Z" fill="#263238"/>
<path d="M248.5 233.3L249.5 238.6L248.5 238.8L249.5 239.1L250.6 244.3L249.3 244.6L250.6 245L251.2 248.4H245.2L247 240.8L248 240.6L247.1 240.3L248.5 233.3Z" fill="#263238"/>
<path d="M235.2 229L236.2 234.2L235.2 234.5L236.2 234.8L237.2 240L235.9 240.2L237.2 240.7L237.8 244H231.8L233.6 236.5L234.6 236.2L233.7 236L235.2 229Z" fill="#263238"/>
<path d="M237.8 252.6L240.8 240.1L242.4 239.7L241 239.3L243.4 227.6L245.1 236.4L243.4 236.8L245.1 237.3L246.8 245.9L244.7 246.3L246.8 247L247.9 252.6" fill="#263238"/>
<path d="M251.3 250L253.5 240.6L254.7 240.3L253.7 240L255.5 231.1L256.7 237.8L255.5 238.1L256.7 238.5L258 244.9L256.4 245.3L258 245.8L258.8 250" fill="#263238"/>
<path d="M258.8 250C258.8 249.9 258.8 249.8 258.7 249.7C258.7 249.5 258.6 249.2 258.5 248.9C258.3 248.2 258.1 247.1 257.9 245.8C257.4 245.6 256.9 245.5 256.3 245.3L256.1 245.2H256.3C256.8 245.1 257.3 245 257.9 244.9V245C257.5 243.1 257.1 240.9 256.6 238.5L256.7 238.6C256.3 238.5 255.9 238.3 255.4 238.2L255.1 238.1L255.4 238C255.8 237.9 256.2 237.8 256.7 237.7L256.6 237.8C256.3 236.1 255.9 234.2 255.6 232.4C255.5 232 255.4 231.6 255.4 231.2H255.6C255 234.4 254.3 237.4 253.8 240.1L253.7 240C254.1 240.1 254.4 240.2 254.8 240.3L255.1 240.4L254.8 240.5C254.4 240.6 254 240.7 253.6 240.8V240.7C252.9 243.6 252.3 245.9 251.9 247.6C251.7 248.4 251.5 249.1 251.4 249.5C251.3 249.7 251.3 249.9 251.3 250C251.3 250.1 251.3 250.2 251.2 250.2C251.2 250.2 251.2 250.1 251.2 250C251.2 249.9 251.3 249.7 251.3 249.5C251.4 249 251.6 248.4 251.7 247.6C252.1 245.9 252.6 243.6 253.3 240.7C253.7 240.6 254.1 240.5 254.5 240.4V240.5C254.2 240.4 253.8 240.3 253.4 240.2H253.3V240.1C253.8 237.4 254.4 234.4 255.1 231.2L255.2 230.8L255.3 231.2C255.4 231.6 255.5 232 255.5 232.4C255.9 234.3 256.2 236.1 256.5 237.8V237.9H256.4C256 238 255.5 238.1 255.1 238.2V238C255.5 238.1 256 238.3 256.4 238.4C256.9 240.8 257.3 243 257.6 244.9V245H257.5C256.9 245.1 256.4 245.2 255.9 245.3V245.2C256.5 245.4 257 245.6 257.5 245.8C257.8 247.1 258 248.2 258.1 248.9C258.2 249.3 258.2 249.5 258.3 249.7C258.8 249.8 258.8 249.9 258.8 250Z" fill="#263238"/>
<path d="M226.7 243.5L228.9 234L230.2 233.7L229.1 233.4L230.9 224.5L232.2 231.2L230.9 231.5L232.2 231.9L233.4 238.4L231.8 238.7L233.4 239.2L234.3 243.5" fill="#263238"/>
<path d="M234.3 243.5C234.3 243.4 234.3 243.3 234.2 243.2C234.2 243 234.1 242.7 234 242.4C233.8 241.7 233.6 240.6 233.4 239.3C232.9 239.1 232.4 239 231.8 238.8L231.6 238.7H231.8C232.3 238.6 232.8 238.5 233.4 238.4V238.5C233 236.6 232.6 234.4 232.1 232L232.2 232.1C231.8 232 231.4 231.8 230.9 231.7L230.6 231.6L230.9 231.5C231.3 231.4 231.7 231.3 232.2 231.2L232.1 231.3C231.8 229.6 231.4 227.7 231.1 225.9C231 225.5 230.9 225.1 230.9 224.7H231.1C230.5 227.9 229.8 230.9 229.3 233.6L229.2 233.5C229.6 233.6 229.9 233.7 230.3 233.8L230.6 233.9L230.3 234C229.9 234.1 229.5 234.2 229.1 234.3V234.2C228.4 237.1 227.8 239.4 227.4 241.1C227.2 241.9 227 242.6 226.9 243C226.8 243.2 226.8 243.4 226.8 243.5C226.8 243.6 226.8 243.7 226.7 243.7C226.7 243.7 226.7 243.6 226.7 243.5C226.7 243.4 226.8 243.2 226.8 243C226.9 242.5 227.1 241.9 227.2 241.1C227.6 239.4 228.1 237.1 228.8 234.2C229.2 234.1 229.6 234 230 233.9V234C229.7 233.9 229.3 233.8 228.9 233.7H228.8V233.6C229.3 230.9 229.9 227.9 230.6 224.7L230.7 224.3L230.8 224.7C230.9 225.1 231 225.5 231 225.9C231.4 227.8 231.7 229.6 232 231.3V231.4H231.9C231.5 231.5 231 231.6 230.6 231.7V231.5C231 231.6 231.5 231.8 231.9 231.9C232.4 234.3 232.8 236.5 233.1 238.4V238.5H233C232.4 238.6 231.9 238.7 231.4 238.8V238.7C232 238.9 232.5 239.1 233 239.3C233.3 240.6 233.5 241.7 233.6 242.4C233.7 242.8 233.7 243 233.8 243.2C234.2 243.3 234.2 243.3 234.3 243.5Z" fill="#263238"/>
<path d="M307.2 235.4L308.2 240.7L307.2 241L308.2 241.3L309.2 246.4L308 246.7L309.2 247.1L309.9 250.5H303.9L305.7 243L306.6 242.7L305.8 242.5L307.2 235.4Z" fill="#263238"/>
<path d="M318.2 234.5L319.6 241.8L318.2 242.2L319.6 242.6L321 249.7L319.2 250L321 250.6L321.9 255.3H313.6L316.1 244.9L317.4 244.6L316.3 244.3L318.2 234.5Z" fill="#263238"/>
<path d="M311.7 240.7L312.5 244.8L311.7 245L312.5 245.2L313.3 249.2L312.3 249.4L313.3 249.7L313.8 252.3H309.1L310.5 246.5L311.3 246.3L310.6 246.1L311.7 240.7Z" fill="#263238"/>
<path d="M295.1 233.7L296.1 239L295.1 239.3L296.1 239.6L297.1 244.8L295.8 245L297.1 245.5L297.8 248.8H291.7L293.5 241.3L294.5 241L293.7 240.8L295.1 233.7Z" fill="#263238"/>
<path d="M281.7 229.4L282.7 234.7L281.7 235L282.7 235.3L283.7 240.4L282.4 240.7L283.7 241.1L284.4 244.5H278.3L280.1 237L281.1 236.7L280.3 236.5L281.7 229.4Z" fill="#263238"/>
<path d="M284.4 253.1L287.4 240.6L289 240.1L287.6 239.8L290 228L291.6 236.8L290 237.3L291.6 237.8L293.3 246.4L291.2 246.8L293.3 247.5L294.4 253.1" fill="#263238"/>
<path d="M297.8 250.5L300.1 241L301.3 240.7L300.2 240.4L302 231.6L303.3 238.2L302 238.5L303.3 238.9L304.5 245.4L303 245.7L304.5 246.3L305.4 250.5" fill="#263238"/>
<path d="M305.4 250.5C305.4 250.4 305.4 250.3 305.3 250.2C305.3 250 305.2 249.7 305.1 249.4C304.9 248.7 304.7 247.6 304.5 246.3C304 246.1 303.5 246 302.9 245.8L302.7 245.7H302.9C303.4 245.6 303.9 245.5 304.5 245.4V245.5C304.1 243.6 303.7 241.4 303.2 239L303.3 239.1C302.9 239 302.5 238.8 302 238.7L301.7 238.6L302 238.5C302.4 238.4 302.8 238.3 303.3 238.2L303.2 238.3C302.9 236.6 302.5 234.7 302.2 232.9C302.1 232.5 302 232.1 302 231.7H302.2C301.6 234.9 300.9 237.9 300.4 240.6L300.3 240.5C300.7 240.6 301 240.7 301.4 240.8L301.7 240.9L301.4 241C301 241.1 300.6 241.2 300.2 241.3V241.2C299.5 244.1 298.9 246.4 298.5 248.1C298.3 248.9 298.1 249.6 298 250C297.9 250.2 297.9 250.4 297.9 250.5C297.9 250.6 297.9 250.7 297.8 250.7C297.8 250.7 297.8 250.6 297.8 250.5C297.8 250.4 297.9 250.2 297.9 250C298 249.5 298.2 248.9 298.3 248.1C298.7 246.4 299.2 244.1 299.9 241.2C300.3 241.1 300.7 241 301.1 240.9V241C300.8 240.9 300.4 240.8 300 240.7H299.9V240.6C300.4 237.9 301 234.9 301.7 231.7L301.8 231.3L301.9 231.7C302 232.1 302.1 232.5 302.1 232.9C302.5 234.8 302.8 236.6 303.1 238.3V238.4H303C302.6 238.5 302.1 238.6 301.7 238.7V238.5C302.1 238.6 302.6 238.8 303 238.9C303.5 241.3 303.9 243.5 304.2 245.4V245.5H304.1C303.5 245.6 303 245.7 302.5 245.8V245.7C303.1 245.9 303.6 246.1 304.1 246.3C304.4 247.6 304.6 248.7 304.7 249.4C304.8 249.8 304.8 250 304.9 250.2C305.4 250.3 305.4 250.4 305.4 250.5Z" fill="#263238"/>
<path d="M273.2 243.9L275.5 234.5L276.7 234.2L275.6 233.9L277.4 225L278.7 231.7L277.4 232L278.7 232.4L280 238.8L278.4 239.2L280 239.7L280.8 243.9" fill="#263238"/>
<path d="M280.8 243.9C280.8 243.8 280.8 243.7 280.7 243.6C280.7 243.4 280.6 243.1 280.5 242.8C280.3 242.1 280.1 241 279.9 239.7C279.4 239.5 278.9 239.4 278.3 239.2L278.1 239.1H278.3C278.8 239 279.3 238.9 279.9 238.8V238.9C279.5 237 279.1 234.8 278.6 232.4L278.7 232.5C278.3 232.4 277.9 232.2 277.4 232.1L277.1 232L277.4 231.9C277.8 231.8 278.2 231.7 278.7 231.6L278.6 231.7C278.3 230 277.9 228.1 277.6 226.3C277.5 225.9 277.4 225.5 277.4 225.1H277.6C277 228.3 276.3 231.3 275.8 234L275.7 233.9C276.1 234 276.4 234.1 276.8 234.2L277.1 234.3L276.8 234.4C276.4 234.5 276 234.6 275.6 234.7V234.6C274.9 237.5 274.3 239.8 273.9 241.5C273.7 242.3 273.5 243 273.4 243.4C273.3 243.6 273.3 243.8 273.3 243.9C273.3 244 273.3 244.1 273.2 244.1C273.2 244.1 273.2 244 273.2 243.9C273.2 243.8 273.3 243.6 273.3 243.4C273.4 242.9 273.6 242.3 273.7 241.5C274.1 239.8 274.6 237.5 275.3 234.6C275.7 234.5 276.1 234.4 276.5 234.3V234.4C276.2 234.3 275.8 234.2 275.4 234.1H275.3V234C275.8 231.3 276.4 228.3 277.1 225.1L277.2 224.7L277.3 225.1C277.4 225.5 277.5 225.9 277.5 226.3C277.9 228.2 278.2 230 278.5 231.7V231.8H278.4C278 231.9 277.5 232 277.1 232.1V231.9C277.5 232 278 232.2 278.4 232.3C278.9 234.7 279.3 236.9 279.6 238.8V238.9H279.5C278.9 239 278.4 239.1 277.9 239.2V239.1C278.5 239.3 279 239.5 279.5 239.7C279.8 241 280 242.1 280.1 242.8C280.2 243.2 280.2 243.4 280.3 243.6C280.8 243.7 280.8 243.8 280.8 243.9Z" fill="#263238"/>
<path d="M340.2 239.1L341.2 244.4L340.2 244.7L341.2 245L342.2 250.1L341 250.4L342.2 250.8L342.9 254.2H336.9L338.7 246.6L339.6 246.4L338.8 246.2L340.2 239.1Z" fill="#263238"/>
<path d="M351 241.3L352 246.2L351 246.5L352 246.8L352.9 251.6L351.7 251.8L352.9 252.2L353.5 255.3H347.9L349.6 248.3L350.5 248.1L349.7 247.9L351 241.3Z" fill="#263238"/>
<path d="M344.7 244.3L345.5 248.4L344.7 248.6L345.5 248.9L346.3 252.9L345.3 253.1L346.3 253.4L346.8 256H342.1L343.5 250.2L344.3 250L343.6 249.8L344.7 244.3Z" fill="#263238"/>
<path d="M328.1 237.4L329.1 242.7L328.1 243L329.1 243.3L330.1 248.5L328.8 248.7L330.1 249.1L330.7 252.5H324.7L326.5 245L327.5 244.7L326.6 244.5L328.1 237.4Z" fill="#263238"/>
<path d="M314.7 233.1L315.7 238.4L314.7 238.7L315.7 239L316.7 244.1L315.4 244.4L316.7 244.8L317.4 248.2H311.3L313.1 240.6L314.1 240.4L313.2 240.2L314.7 233.1Z" fill="#263238"/>
<path d="M317.4 256.8L320.3 244.3L322 243.8L320.6 243.5L322.9 231.7L324.6 240.5L322.9 240.9L324.6 241.5L326.3 250L324.2 250.5L326.3 251.2L327.4 256.8" fill="#263238"/>
<path d="M330.8 254.2L333 244.7L334.3 244.4L333.2 244.1L335 235.3L336.3 241.9L335 242.2L336.3 242.6L337.5 249.1L335.9 249.4L337.5 250L338.4 254.2" fill="#263238"/>
<path d="M338.4 254.2C338.4 254.1 338.4 254 338.3 253.9C338.3 253.7 338.2 253.4 338.1 253.1C337.9 252.4 337.7 251.3 337.5 250C337 249.8 336.5 249.7 335.9 249.5L335.7 249.4H335.9C336.4 249.3 336.9 249.2 337.5 249.1V249.2C337.1 247.3 336.7 245.1 336.2 242.7L336.3 242.8C335.9 242.7 335.5 242.5 335 242.4L334.7 242.3L335 242.2C335.4 242.1 335.8 242 336.3 241.9L336.2 242C335.9 240.3 335.5 238.4 335.2 236.6C335.1 236.2 335 235.8 335 235.4H335.2C334.6 238.6 333.9 241.6 333.4 244.3L333.3 244.2C333.7 244.3 334 244.4 334.4 244.5L334.7 244.6L334.4 244.7C334 244.8 333.6 244.9 333.2 245V244.9C332.5 247.8 331.9 250.1 331.5 251.8C331.3 252.6 331.1 253.3 331 253.7C330.9 253.9 330.9 254.1 330.9 254.2C330.9 254.3 330.9 254.4 330.8 254.4C330.8 254.4 330.8 254.3 330.8 254.2C330.8 254.1 330.9 253.9 330.9 253.7C331 253.2 331.2 252.6 331.3 251.8C331.7 250.1 332.2 247.8 332.9 244.9C333.3 244.8 333.7 244.7 334.1 244.6V244.7C333.8 244.6 333.4 244.5 333 244.4H332.9V244.3C333.4 241.6 334 238.6 334.7 235.4L334.8 235L334.9 235.4C335 235.8 335.1 236.2 335.1 236.6C335.5 238.5 335.8 240.3 336.1 242V242.1H336C335.6 242.2 335.1 242.3 334.7 242.4V242.2C335.1 242.3 335.6 242.5 336 242.6C336.5 245 336.9 247.2 337.2 249.1V249.2H337.1C336.5 249.3 336 249.4 335.5 249.5V249.4C336.1 249.6 336.6 249.8 337.1 250C337.4 251.3 337.6 252.4 337.7 253.1C337.8 253.5 337.8 253.7 337.9 253.9C338.3 254 338.3 254.1 338.4 254.2Z" fill="#263238"/>
<path d="M306.2 247.6L308.5 238.2L309.7 237.8L308.6 237.6L310.4 228.7L311.7 235.3L310.4 235.7L311.7 236.1L312.9 242.5L311.4 242.8L312.9 243.4L313.8 247.6" fill="#263238"/>
<path d="M313.8 247.6C313.8 247.5 313.8 247.4 313.7 247.3C313.7 247.1 313.6 246.8 313.5 246.5C313.3 245.8 313.1 244.7 312.9 243.4C312.4 243.2 311.9 243.1 311.3 242.9L311.1 242.8H311.3C311.8 242.7 312.3 242.6 312.9 242.5V242.6C312.5 240.7 312.1 238.5 311.6 236.1L311.7 236.2C311.3 236.1 310.9 235.9 310.4 235.8L310.1 235.7L310.4 235.6C310.8 235.5 311.2 235.4 311.7 235.3L311.6 235.4C311.3 233.7 310.9 231.8 310.6 230C310.5 229.6 310.4 229.2 310.4 228.8H310.6C310 232 309.3 235 308.8 237.7L308.7 237.6C309.1 237.7 309.4 237.8 309.8 237.9L310.1 238L309.8 238.1C309.4 238.2 309 238.3 308.6 238.4V238.3C307.9 241.2 307.3 243.5 306.9 245.2C306.7 246 306.5 246.7 306.4 247.1C306.3 247.3 306.3 247.5 306.3 247.6C306.3 247.7 306.3 247.8 306.2 247.8C306.1 247.8 306.2 247.7 306.2 247.6C306.2 247.5 306.3 247.3 306.3 247.1C306.4 246.6 306.6 246 306.7 245.2C307.1 243.5 307.6 241.2 308.3 238.3C308.7 238.2 309.1 238.1 309.5 238V238.1C309.2 238 308.8 237.9 308.4 237.8H308.3V237.7C308.8 235 309.4 232 310.1 228.8L310.2 228.4L310.3 228.8C310.4 229.2 310.5 229.6 310.5 230C310.9 231.9 311.2 233.7 311.5 235.4V235.5H311.4C311 235.6 310.5 235.7 310.1 235.8V235.6C310.5 235.7 311 235.9 311.4 236C311.9 238.4 312.3 240.6 312.6 242.5V242.6H312.5C311.9 242.7 311.4 242.8 310.9 242.9V242.8C311.5 243 312 243.2 312.5 243.4C312.8 244.7 313 245.8 313.1 246.5C313.2 246.9 313.2 247.1 313.3 247.3C313.7 247.4 313.8 247.5 313.8 247.6Z" fill="#263238"/>
<path d="M177 219.9L178.2 226L177 226.3L178.2 226.7L179.3 232.6L177.9 232.9L179.3 233.4L180.1 237.3H173.2L175.2 228.6L176.3 228.3L175.4 228L177 219.9Z" fill="#263238"/>
<path d="M189.5 222.4L190.6 228.1L189.5 228.4L190.6 228.7L191.7 234.2L190.3 234.5L191.7 235L192.4 238.6H185.9L187.8 230.5L188.9 230.2L188 230L189.5 222.4Z" fill="#263238"/>
<path d="M182.2 225.9L183.1 230.7L182.2 230.9L183.1 231.2L184 235.8L182.9 236L184 236.4L184.6 239.4H179.2L180.8 232.7L181.7 232.4L181 232.2L182.2 225.9Z" fill="#263238"/>
<path d="M163 218L164.2 224.1L163 224.4L164.2 224.7L165.3 230.7L163.9 231L165.3 231.5L166.1 235.3H159.2L161.2 226.7L162.3 226.4L161.4 226.1L163 218Z" fill="#263238"/>
<path d="M143.9 213.9L145.2 220.9L143.9 221.3L145.2 221.7L146.5 228.5L144.9 228.9L146.5 229.4L147.4 233.9H139.4L141.8 223.9L143.1 223.6L142 223.3L143.9 213.9Z" fill="#263238"/>
<path d="M150.7 240.3L154.1 225.8L156 225.3L154.4 224.9L157.1 211.4L159 221.5L157.1 222L159 222.6L161 232.5L158.5 233L161 233.8L162.2 240.3" fill="#263238"/>
<path d="M166.2 237.3L168.8 226.4L170.2 226L168.9 225.7L171 215.5L172.5 223.1L171 223.5L172.5 224L173.9 231.4L172.1 231.8L173.9 232.4L174.9 237.3" fill="#263238"/>
<path d="M174.9 237.3C174.9 237.2 174.8 237.1 174.8 237C174.8 236.8 174.7 236.5 174.6 236C174.4 235.2 174.2 233.9 173.9 232.4C173.3 232.2 172.7 232 172.1 231.8L171.9 231.7H172.1C172.7 231.6 173.3 231.5 173.9 231.3L173.8 231.4C173.4 229.3 172.9 226.7 172.3 224L172.4 224.1C171.9 224 171.4 223.8 170.9 223.6L170.6 223.5L170.9 223.4C171.4 223.3 171.9 223.2 172.4 223L172.3 223.1C171.9 221.1 171.5 219 171.1 216.8C171 216.3 170.9 215.9 170.8 215.4H171C170.3 219.1 169.6 222.5 168.9 225.6L168.8 225.5C169.2 225.6 169.6 225.7 170 225.8L170.3 225.9L170 226C169.5 226.1 169.1 226.2 168.6 226.4L168.7 226.3C167.9 229.6 167.2 232.3 166.8 234.2C166.6 235.1 166.4 235.9 166.3 236.4C166.2 236.6 166.2 236.8 166.2 237C166.2 237.1 166.1 237.2 166.1 237.2C166.1 237.2 166.1 237.1 166.1 237C166.1 236.9 166.2 236.7 166.2 236.4C166.3 235.9 166.5 235.1 166.7 234.2C167.1 232.3 167.8 229.6 168.6 226.3C169.1 226.2 169.5 226.1 170 225.9V226.1C169.6 226 169.2 225.9 168.8 225.8H168.7V225.7C169.3 222.6 170 219.1 170.8 215.5L170.9 215L171 215.5C171.1 216 171.2 216.4 171.3 216.9C171.7 219.1 172.1 221.2 172.5 223.2V223.3H172.4C171.9 223.4 171.4 223.6 170.9 223.7V223.5C171.4 223.7 171.9 223.8 172.4 224H172.5V224.1C173 226.9 173.5 229.4 173.9 231.6V231.7H173.8C173.2 231.8 172.6 231.9 172 232.1V232C172.7 232.2 173.3 232.4 173.8 232.6C174.1 234.1 174.3 235.4 174.5 236.2C174.6 236.6 174.6 236.9 174.7 237.2C174.9 237.1 174.9 237.1 174.9 237.3Z" fill="#263238"/>
<path d="M132.7 233.2L135.7 220.6L137.3 220.2L135.9 219.8L138.2 208.1L139.9 216.9L138.2 217.3L139.9 217.9L141.6 226.4L139.5 226.8L141.6 227.6L142.7 233.2" fill="#263238"/>
<path d="M142.7 233.2C142.7 233 142.6 232.9 142.6 232.8C142.5 232.5 142.5 232.2 142.4 231.7C142.2 230.7 141.9 229.3 141.5 227.6C140.9 227.4 140.2 227.1 139.4 226.9L139.1 226.8L139.4 226.7C140.1 226.6 140.8 226.4 141.5 226.3L141.4 226.4C140.9 223.9 140.3 221 139.7 217.9L139.8 218C139.3 217.8 138.7 217.6 138.1 217.5L137.8 217.4L138.2 217.3C138.7 217.2 139.3 217 139.9 216.9L139.8 217C139.4 214.7 138.9 212.3 138.4 209.8C138.3 209.3 138.2 208.7 138.1 208.2H138.3C137.4 212.4 136.6 216.4 135.9 219.9L135.8 219.8C136.3 219.9 136.7 220 137.2 220.2L137.6 220.3L137.2 220.4C136.7 220.5 136.1 220.7 135.6 220.8L135.7 220.7C134.8 224.5 134 227.6 133.5 229.8C133.2 230.9 133 231.7 132.9 232.3C132.8 232.6 132.8 232.8 132.7 233C132.7 233.1 132.6 233.2 132.6 233.2C132.6 233.2 132.6 233.1 132.6 233C132.6 232.8 132.7 232.6 132.7 232.3C132.8 231.7 133 230.8 133.3 229.8C133.8 227.6 134.6 224.5 135.4 220.7V220.6H135.5C136 220.5 136.6 220.3 137.1 220.2V220.4C136.6 220.3 136.2 220.2 135.7 220H135.6V219.9C136.3 216.4 137.1 212.4 138 208.2L138.1 207.6L138.2 208.2C138.3 208.7 138.4 209.3 138.5 209.8C139 212.3 139.4 214.7 139.9 217V217.1H139.8C139.2 217.2 138.7 217.4 138.1 217.5V217.3C138.7 217.5 139.2 217.7 139.8 217.8H139.9V217.9C140.5 221.1 141.1 224 141.6 226.5V226.6H141.5C140.8 226.7 140.1 226.9 139.4 227V226.9C140.2 227.2 140.9 227.4 141.5 227.6C141.8 229.4 142.1 230.8 142.3 231.7C142.4 232.2 142.5 232.5 142.5 232.8C142.7 232.9 142.7 233 142.7 233.2Z" fill="#263238"/>
<path opacity="0.3" d="M329.9 247.6C329.9 247.6 327.9 251.9 328.1 251.9C328.3 251.8 332.2 247.8 332.2 247.8L329.9 247.6Z" fill="#FF725E"/>
<path opacity="0.3" d="M337.4 248.3L336.9 250.5L338.3 248.3H337.4Z" fill="#FF725E"/>
<path opacity="0.3" d="M341.9 248.7L342.3 249.3L343.8 248.8L341.9 248.7Z" fill="#FF725E"/>
<path opacity="0.3" d="M304.6 245.4L300.4 248.8L305.1 245.4H304.6Z" fill="#FF725E"/>
<path opacity="0.3" d="M297.1 244.7L292.3 248.6L299.1 244.9L297.1 244.7Z" fill="#FF725E"/>
<path opacity="0.3" d="M284.2 243.6L278.3 247.9L286.6 243.8L284.2 243.6Z" fill="#FF725E"/>
<path opacity="0.3" d="M270 242.4L261.7 246.7L265.5 242L270 242.4Z" fill="#FF725E"/>
<path opacity="0.3" d="M264.9 241.9C264.7 241.9 257.4 245.1 257.4 245.1L261.9 241.6L264.9 241.9Z" fill="#FF725E"/>
<path opacity="0.3" d="M253.4 240.9C253.4 241.1 248.2 242.2 248.2 242.2L249.8 240.6L253.4 240.9Z" fill="#FF725E"/>
<path opacity="0.3" d="M257.3 241.2L254.6 243.2L259.4 241.4L257.3 241.2Z" fill="#FF725E"/>
<path d="M512.7 219.9L507.4 210.1L491.8 207.4L471.6 196L460.9 182.4L441.8 163.4L421.6 156.9L409.4 167.2L399.5 188.9L384.6 193.8L373.5 206.8L349.1 210.1L336.1 202L328.5 204.2L301.8 196.6L284 185.8L272.2 169.3C272.2 169.3 267.6 163.1 261.5 158.7L249.7 146.8L223.8 131.6L215.8 143L208.9 146.3L171.2 175L138.4 182.1H116.7C116.7 182.1 84.9999 230.3 83.7999 230.8H534.4L512.7 219.9Z" fill="#455A64"/>
<path opacity="0.3" d="M512.7 219.9L507.4 210.1L491.8 207.4L471.6 196L460.9 182.4L441.8 163.4L421.6 156.9L409.4 167.2L399.5 188.9L384.6 193.8L373.5 206.8L349.1 210.1L336.1 202L328.5 204.2L301.8 196.6L284 185.8L272.2 169.3C272.2 169.3 267.6 163.1 261.5 158.7L249.7 146.8L223.8 131.6L215.8 143L208.9 146.3L171.2 175L138.4 182.1H116.7C116.7 182.1 84.9999 230.3 83.7999 230.8H534.4L512.7 219.9Z" fill="#FF725E"/>
<path d="M33.7 228.2C36.2 226.4 72.4 149.4 72.4 149.4L97.5999 140.5L136.9 114.1L173.1 126.4L182.3 139.9L199.5 143L221.6 171.2L291 217.9L337 228.3L371.2 211.7L423.4 182.2L469.6 171.2C469.6 171.2 505.2 139.9 507 139.3C508.8 138.7 560.4 149.5 560.4 149.5L605.8 177.4L670.3 191.5L726.3 237L340.4 240.1L30.7 237.6L33.7 228.2Z" fill="#455A64"/>
<path opacity="0.1" d="M97.5 140.4L101.3 155.3L111.2 163.5L116.7 182L134.3 191L142.1 218.4L189.6 238.7L30.6 237.4L33.4 228.9L49.9 196.5L72.4 149.3L97.5 140.4Z" fill="black"/>
<path opacity="0.1" d="M336.9 228.2L388.5 209.4L424.9 184.8L421.2 192.3C421.2 192.3 471.1 170.8 469.6 171.2C468.1 171.6 423.4 182.2 423.4 182.2L371.2 211.7L336.9 228.2Z" fill="#FF725E"/>
<path opacity="0.1" d="M469.5 171.1L486.3 164.4L504.9 140.7L483.4 159L469.5 171.1Z" fill="#FF725E"/>
<path d="M209 146.2C209 146.2 209.1 146.1 209.4 146C209.7 145.8 210.1 145.6 210.7 145.4C211.9 144.8 213.6 144 215.8 142.9C217.8 140.1 220.5 136.2 223.8 131.5L223.9 131.4L224 131.5C231 135.6 239.8 140.7 249.9 146.6C253.6 150.3 257.5 154.3 261.7 158.5C263.9 160.1 266 161.9 268 164C270 166 271.9 168.2 273.6 170.7C277 175.5 280.6 180.5 284.3 185.7L284.2 185.6C289.9 189.1 295.9 192.7 302.1 196.4H302C308.9 198.4 316.1 200.4 323.5 202.5C325.2 203 327 203.5 328.7 204H328.6C331.2 203.3 333.7 202.5 336.2 201.8H336.3L336.4 201.9C340.8 204.7 345.1 207.4 349.4 210H349.2C357.6 208.9 365.8 207.8 373.6 206.8L373.4 206.9C377.2 202.4 380.9 198.1 384.5 193.9H384.6C389.8 192.2 394.8 190.6 399.5 189L399.4 189.1C403.1 181.1 406.4 173.8 409.3 167.4C414 163.5 418 160.1 421.5 157.1H421.6H421.7C428.2 159.2 433.2 160.9 436.7 162C438.4 162.6 439.7 163 440.6 163.3C441 163.4 441.4 163.6 441.6 163.6C441.4 163.5 441 163.4 440.6 163.3C439.7 163 438.4 162.6 436.7 162.1C433.3 161 428.2 159.4 421.7 157.3H421.8C418.3 160.3 414.3 163.7 409.6 167.6V167.5C406.7 173.9 403.4 181.2 399.7 189.2V189.3H399.6C394.9 190.9 389.9 192.5 384.7 194.2L384.8 194.1C381.3 198.3 377.6 202.6 373.8 207.1L373.7 207.2H373.6C365.8 208.2 357.6 209.3 349.2 210.5H349.1H349C344.8 207.8 340.4 205.1 336 202.4H336.2C333.7 203.1 331.1 203.8 328.6 204.6H328.5H328.4C326.7 204.1 324.9 203.6 323.2 203.1C315.8 201 308.6 199 301.7 197C295.5 193.3 289.5 189.6 283.8 186.1C280.1 180.9 276.5 175.9 273.1 171.1C271.4 168.7 269.5 166.5 267.6 164.4C265.6 162.4 263.6 160.5 261.4 159C257.2 154.8 253.3 150.8 249.6 147.1C239.4 141.1 230.7 136 223.7 131.9H223.9C220.6 136.6 217.9 140.4 215.9 143.3C213.7 144.3 211.9 145.1 210.8 145.7C210.2 146 209.8 146.2 209.5 146.3C209.1 146.1 209 146.2 209 146.2Z" fill="#FF725E"/>
<path opacity="0.3" d="M284 185.8L302.2 205.9L300.7 199.6L334.6 217.6L316.7 201.7L328.6 204.2L302 196.6L284 185.8Z" fill="#FF725E"/>
<path opacity="0.3" d="M373.6 206.9C374.1 206.3 385.9 195.3 385.9 195.3L384.4 199.6L389 194.2L396.4 191.8L394.7 194.2L394.6 196.3L395.8 193.8L399.5 189L384.6 193.9L373.6 206.9Z" fill="#FF725E"/>
<path opacity="0.3" d="M336.3 202L336.9 205.2L340.3 208.4L338.3 204.7L339.9 205.2L342.1 208.1L344.7 209.7L342.6 207.5L342.1 206.1L349.2 210.2L336.5 202" fill="#FF725E"/>
<path opacity="0.3" d="M341.1 209.8L342.7 211.5L345.7 212.4L341.1 209.8Z" fill="#FF725E"/>
<path opacity="0.3" fill-rule="evenodd" clip-rule="evenodd" d="M302.9 208.3C303.3 208.3 309.1 213 309.1 213L316.1 214.9L302.9 208.3Z" fill="#FF725E"/>
<path opacity="0.3" fill-rule="evenodd" clip-rule="evenodd" d="M223.8 131.5L231.8 149.7L237.8 155.8L234.8 148.7L235.9 144.7L245.2 149.7L250.1 161.9L258.8 168.3L251.2 156.6L250.4 153.6C250.4 153.6 259.9 159.7 259.9 160.2C259.9 160.7 267 169.5 267 169.5L260.8 157.9L249.7 146.7L223.8 131.5Z" fill="#FF725E"/>
<path opacity="0.3" fill-rule="evenodd" clip-rule="evenodd" d="M400.6 186.6C400.7 186.4 409.1 171.1 409.1 171.1L407.4 177.5L407.7 182.3C407.7 182.3 408.4 177.6 408.5 177C408.6 176.4 412.3 167.5 412.3 167.5L415.7 164.4L413.8 171.1L418.2 162.3L421.6 157L409.4 167.3L400.6 186.6Z" fill="#FF725E"/>
<path opacity="0.3" fill-rule="evenodd" clip-rule="evenodd" d="M413.3 172.8C413.1 172.9 412 175.8 412 175.8L412.2 177.8L413.3 172.8Z" fill="#FF725E"/>
<path opacity="0.3" fill-rule="evenodd" clip-rule="evenodd" d="M239.6 158L243.9 165.8L251.2 173L239.6 158Z" fill="#FF725E"/>
<path opacity="0.1" fill-rule="evenodd" clip-rule="evenodd" d="M417.2 196.5C416.6 196.7 403.2 204.9 403.2 204.9L401.6 209.7L417.2 196.5Z" fill="#FF725E"/>
<path d="M221.5 171.1C221.5 171.1 221.6 171.2 221.8 171.3C222 171.4 222.3 171.7 222.8 171.9C223.7 172.5 224.9 173.3 226.5 174.4C229.8 176.6 234.6 179.8 240.7 183.9C252.9 192.1 270.2 203.7 291 217.6H290.9C304.9 220.8 320.5 224.3 336.9 228H336.7C346 223.5 355.6 218.8 365.4 214.1C370.8 211.7 375.7 208.7 380.7 205.9C385.7 203.1 390.6 200.3 395.4 197.6C405 192.2 414.3 187 423 182C440.3 177.9 455.9 174.2 469.2 171H469.1C480.7 161.2 490.1 153.2 496.6 147.7C499.8 145 502.4 142.8 504.1 141.4C505 140.7 505.6 140.1 506.1 139.8C506.5 139.4 506.8 139.3 506.8 139.3C506.8 139.3 506.6 139.5 506.2 139.9C505.8 140.3 505.1 140.8 504.3 141.6C502.6 143.1 500.1 145.2 496.9 148C490.4 153.5 481.1 161.5 469.6 171.4C456.3 174.6 440.7 178.3 423.4 182.5H423.5C414.7 187.4 405.5 192.7 395.9 198.1C391.1 200.8 386.2 203.6 381.2 206.4C376.2 209.2 371.2 212.2 365.9 214.6C356.1 219.4 346.4 224 337.2 228.5H337.1H337C320.5 224.8 305 221.2 291 218C270.3 204 253 192.3 240.8 184.1C234.7 180 230 176.8 226.7 174.5C225.1 173.4 223.8 172.5 223 172C222.6 171.7 222.3 171.5 222.1 171.3C221.6 171.2 221.5 171.1 221.5 171.1Z" fill="#FF725E"/>
<path opacity="0.1" d="M289.4 218L249 198L257.3 209.8L268.4 213.3L256.3 211.6L240.4 197.1L237.8 195.3V201.7L222.6 171.9L290.9 217.8L289.4 218Z" fill="#FF725E"/>
<path opacity="0.1" d="M136.8 114C136.8 114 161.9 148.2 162 147.8C162.1 147.4 156 130.9 156 130.9L165.7 133.3L168.4 143.6L195.3 158.9L181.7 145.6L182.6 141.6L196.1 150.3L197.9 146.3C197.9 146.3 220.6 169.7 220.2 169.2C219.9 168.8 199.5 142.7 199.5 142.7L182.3 139.6L173.1 126.1C173 126.3 136.2 114 136.8 114Z" fill="#FF725E"/>
<path opacity="0.1" d="M186.9 165.8C188.2 166.8 196.6 173 196.6 173L210.5 198L195.3 179.9L192.3 179.5L177.3 158.9L184.4 165.9H186.9V165.8Z" fill="#FF725E"/>
<path opacity="0.1" d="M455.9 184C454.4 184.7 444.7 188.7 444.7 188.7L425.3 209.7L444.3 195.7L447.3 196L466.8 179.5L458.3 184.6L455.9 184Z" fill="#FF725E"/>
<path opacity="0.1" d="M177.7 188.4C179 189.4 187.4 195.6 187.4 195.6L189.4 206.4L185.8 199.3L183.1 199.8L173 181.2L177.8 185.8L177.7 188.4Z" fill="#FF725E"/>
<path opacity="0.1" d="M246.4 212.6C247.9 213.4 257.2 218.1 257.2 218.1L261 228.4L256.3 222L253.7 222.9L240.7 206.2L246.1 209.9L246.4 212.6Z" fill="#FF725E"/>
<path opacity="0.1" d="M430.6 237.4L453.9 227.1C453.9 227.1 454.3 218.6 454.9 218.6C455.5 218.6 464.5 220.4 464.5 220.4V206.6L484.3 183.2L495.9 179.3C495.9 179.3 488.1 185.1 487.1 185.6C486.2 186 483 197.6 483 197.6L502.8 185.6L510 172.4L521.6 166.8H511.3L524.8 152.5L510.8 147.5L541.1 153.7L590.3 183.3L643.5 192.9L695.7 235.3L430.6 237.4Z" fill="black"/>
<path d="M507.2 189.5C506.6 189.7 501.3 196.8 501.3 196.8C501.3 196.8 500 203.2 500.4 203C500.8 202.7 508.9 193.1 508.9 193.1L507.2 189.5Z" fill="#455A64"/>
<path opacity="0.1" d="M359.3 239.1L390.1 233.3V237.3L417.2 217.3L406.2 233.1L417.2 236.5L441.8 239.3L359.3 239.1Z" fill="black"/>
<path d="M726.3 236.8H7.09998V453.3H726.3V236.8Z" fill="#FF725E"/>
<path opacity="0.5" d="M726.3 236.8H7.09998V453.3H726.3V236.8Z" fill="white"/>
<g opacity="0.3">
<path d="M613.3 372.8C611.8 361.2 599.2 354.8 588.1 351.4C507.1 326.4 419.7 350.2 335.1 344.8C376.1 337.8 417 330.8 458 323.9C463.9 322.9 471.8 318.4 468.9 313.1C467.3 310.1 463.2 309.7 459.8 309.8C436.9 309.9 414 310 391 310.2C379.7 310.3 368.4 310.3 357 310.4C351.3 310.4 345.7 310.5 340 310.5C334.9 310.5 327.7 309.4 323 310.8C343.5 317.8 366.6 319.7 388.1 318.5C360.7 321.1 333.1 323.8 305.5 323.1C278.2 322.4 251.1 318.1 224.6 312.1C204.8 307.6 185.3 302.3 165.8 296.8C117.9 283.2 69.9 269.9 23.2 252.7C18.1 250.8 12.8 248.9 7.59998 246.8V354.1C127.7 392.9 282.4 428.5 354.9 428.5C407.8 428.5 460.7 425.2 513.1 418.5C539.1 415.2 565.3 411 589.5 401C601.7 395.5 615.1 385.9 613.3 372.8Z" fill="#FF725E"/>
</g>
<path d="M250.4 273.9C324.5 275.7 398.6 276.2 472.4 273.7C398.4 274.2 324.4 274.3 250.4 273.9Z" fill="#FF725E"/>
<path d="M305.1 267.8C345.4 269.6 385.6 270.1 425.7 267.6C385.5 268 345.3 268.1 305.1 267.8Z" fill="#FF725E"/>
<path d="M300.9 281.5C341.2 283.3 381.4 283.8 421.5 281.3C381.4 281.8 341.1 281.9 300.9 281.5Z" fill="#FF725E"/>
<path d="M306.2 293.3C330.1 294.4 353.9 294.7 377.7 293.2C353.9 293.5 330 293.5 306.2 293.3Z" fill="#FF725E"/>
<path d="M213.9 326C213.9 326 212.9 325.3 215.1 322.5C215.8 321.6 215.9 320.8 215.8 320.2C215.5 318.9 214 318.2 212.8 318.8C208.1 321 202.8 320.8 198.6 320.1C196.4 319.7 196 316.6 198.2 315.8C202.7 314 207.9 311.4 209 308.9C209.4 307.9 209.5 307.2 209.4 306.7C209.2 305.7 209.5 304.7 210.4 304.3C211.3 303.9 212.1 303.4 212.5 302.7C213.4 301.1 211.3 299.3 209.8 298.3C209.1 297.9 208.7 297.1 208.8 296.3C208.9 295.7 208.8 294.8 208.4 293.8C207.9 292.4 200.6 290.6 194.7 289.4C193 289 192.4 286.9 193.6 285.6C194.2 285 194.6 284.4 194.9 283.9C195.3 283.2 196 282.8 196.8 282.8C199.6 282.7 206 282.2 207.8 279.1C210.1 275.2 206.2 274.1 199.6 270.9C195.6 268.9 188.6 263.7 183.8 259.9C184.7 259.9 185.5 259.8 186.4 259.7C184.9 258.6 183.5 257.5 182.3 256.5C182.1 256.3 181.9 256.1 181.8 255.9C182.1 255.3 182.6 254.9 183.4 254.8C186 254.3 188.9 253.6 190.1 252.5C190.6 252 191 251.7 191.1 251.3C191.5 250.6 192.2 250 193 250C200.5 249.9 197.5 245.1 197.5 245.1C187.7 242.1 181 236.6 177.6 233.3C176.4 232.1 176.9 230.1 178.4 229.6C180.6 228.8 183.5 227.6 185.4 225.8C186.5 224.8 186.6 224.1 186.3 223.5C185.7 222.4 186 221 187.2 220.5C189.9 219.5 192 217.8 187.9 215.2C185.1 213.4 181.5 211.3 178.2 209.5C176.3 208.4 176.9 205.6 179 205.3C179.9 205.2 180.5 205.1 180.5 205.1C184.6 203.2 184.6 201 183.6 199.1C183.7 198.4 183.5 197.7 183.2 197.1C183.1 197.4 182.9 197.7 182.7 197.9C181.7 196.7 180.5 196 180.5 196C175.4 193.1 169 187.9 164.2 183.7C162.6 182.3 163.7 179.7 165.8 179.8C166.4 179.8 166.9 179.7 167.4 179.6C170.9 178.5 163.5 174.2 163.5 174.2C163.5 174.2 167.2 175.3 168.8 174.2C170.4 173.1 164.7 168.1 164.7 168.1C157.3 163.3 148.3 151.6 143.3 144.6C142.4 143.3 140.6 143.3 139.7 144.6C134.7 151.6 125.8 163.3 118.3 168.1C118.3 168.1 116.9 169.3 115.7 170.7L114 170.9C113.9 171.3 113.9 171.6 114.2 171.8C114.3 171.9 114.5 171.9 114.6 172C114 172.9 113.7 173.7 114.2 174.1C114.6 174.4 115.1 174.5 115.7 174.6C114.6 175.6 114.1 176.7 115.4 177.2C114.5 178.2 114.2 179.1 115.6 179.6C116.1 179.7 116.6 179.8 117.2 179.8C119.3 179.8 120.4 182.3 118.8 183.7C114 187.9 107.6 193.2 102.5 196C102.5 196 94.3 201.4 102.5 205.1C102.5 205.1 103.1 205.2 104 205.3C106.1 205.6 106.7 208.5 104.8 209.5C101.5 211.3 97.9 213.4 95.1 215.2C91 217.8 93.1 219.5 95.8 220.5C97 220.9 97.3 222.3 96.7 223.5C96.4 224.1 96.6 224.8 97.6 225.8C99.5 227.5 102.3 228.8 104.6 229.6C106.2 230.2 106.6 232.2 105.4 233.3C102 236.6 95.3 242 85.5 245.1C85.5 245.1 82.5 249.9 90 250C90.8 250 91.5 250.6 91.9 251.3C92.1 251.6 92.4 252 92.9 252.5C94.2 253.6 97 254.3 99.6 254.8C101.5 255.2 102.1 257.6 100.6 258.8C95.8 262.6 87.8 268.8 83.3 270.9C76.6 274.2 72.7 275.2 75.1 279.1C76.9 282.1 83.3 282.7 86.1 282.8C86.9 282.8 87.6 283.2 88 283.9C88.3 284.4 88.7 285 89.3 285.6C89.6 285.9 89.8 286.3 89.9 286.7C89.6 286.8 89.3 286.8 88.9 286.9C89.2 287 89.6 287.1 89.9 287.2C89.9 288.2 89.2 289.1 88.1 289.3C82.2 290.5 74.9 292.3 74.4 293.7C74 294.8 74 295.6 74 296.2C74.1 297 73.7 297.7 73 298.2C71.5 299.2 69.4 301 70.3 302.6C70.7 303.3 71.5 303.9 72.4 304.2C73.3 304.6 73.6 305.6 73.4 306.6C73.3 307.1 73.4 307.9 73.8 308.8C74.9 311.3 80.1 313.9 84.6 315.7C86.7 316.6 86.4 319.6 84.2 320C80 320.7 74.7 320.9 70 318.7C68.8 318.1 67.2 318.8 67 320.1C66.9 320.7 67 321.5 67.7 322.4C69.9 325.2 68.9 325.9 68.9 325.9C68.9 325.9 64 322.2 66.2 327.9C67.4 331.1 71.6 333.6 74.9 335.1C76.4 335.8 76.6 337.6 75.5 338.8C74.8 339.5 74.6 340.4 75.2 341.5C77.2 345 85.4 349.1 94.4 350C99 350.4 104.5 349.8 108.7 349.1C110.3 348.8 111.4 350.3 111.1 351.9C110.9 352.8 111.4 353.7 113.1 354.4C116.4 355.8 119.9 354.6 122.3 353.3C123.4 352.7 124.9 353.1 125.4 354.3C125.8 355.2 126.7 355.8 128.8 355C131 354.1 133 352.8 134.5 351.7V369.4C134.5 369.9 134.9 370.3 135.4 370.3H153C153.5 370.3 153.9 369.9 153.9 369.4V354.8C154 354.9 154.2 354.9 154.3 355C156.3 355.8 157.3 355.2 157.7 354.3C158.2 353.1 159.7 352.7 160.8 353.3C163.2 354.6 166.7 355.8 170 354.4C171.7 353.7 172.2 352.8 172 351.9C171.6 350.3 172.8 348.9 174.4 349.1C178.6 349.8 184.1 350.5 188.7 350C197.7 349.1 205.9 345 207.9 341.5C208.6 340.3 208.3 339.5 207.6 338.8C206.5 337.6 206.7 335.8 208.2 335.1C211.6 333.5 215.7 331 216.9 327.9C218.8 322.3 213.9 326 213.9 326Z" fill="#263238"/>
<path d="M722.7 278.3C722.7 278.3 721.6 277.6 724 274.5C724.7 273.5 724.9 272.7 724.7 272C724.4 270.5 722.7 269.8 721.4 270.4C716.3 272.8 710.5 272.6 706 271.8C703.6 271.4 703.2 268 705.5 267C710.3 265 716 262.1 717.2 259.3C717.7 258.2 717.7 257.4 717.6 256.8C717.4 255.7 717.7 254.5 718.7 254.1C719.7 253.7 720.5 253.1 721 252.3C722 250.5 719.7 248.6 718.1 247.4C717.4 246.9 716.9 246.1 717 245.2C717.1 244.5 717 243.6 716.6 242.4C716 240.8 708.1 238.8 701.8 237.5C699.9 237.1 699.3 234.8 700.6 233.3C701.2 232.6 701.7 231.9 702 231.4C702.4 230.7 703.2 230.2 704 230.2C707 230.1 714 229.5 715.9 226.1C718.4 221.8 714.2 220.6 707 217C702.6 214.8 695.1 209 689.8 204.8C690.7 204.8 691.7 204.7 692.6 204.5C691 203.2 689.5 202 688.1 200.9C687.9 200.7 687.7 200.5 687.6 200.3C687.9 199.7 688.5 199.2 689.3 199C692.1 198.5 695.2 197.6 696.6 196.4C697.2 195.9 697.5 195.5 697.7 195.1C698.1 194.3 698.9 193.7 699.8 193.7C707.9 193.6 704.6 188.3 704.6 188.3C694 184.9 686.7 178.9 683 175.2C681.7 173.9 682.2 171.7 683.9 171.1C686.3 170.2 689.4 168.9 691.5 166.9C692.6 165.8 692.8 165 692.5 164.3C691.9 163 692.2 161.5 693.5 161C696.4 159.9 698.7 158 694.2 155.1C691.2 153.1 687.2 150.8 683.7 148.7C681.7 147.5 682.2 144.4 684.6 144C685.6 143.9 686.2 143.7 686.2 143.7C690.7 141.6 690.6 139.1 689.5 137.1C689.6 136.3 689.4 135.6 689.1 134.9C689 135.2 688.8 135.5 688.6 135.8C687.5 134.5 686.2 133.7 686.2 133.7C680.7 130.5 673.8 124.7 668.5 120C666.8 118.4 667.9 115.6 670.2 115.6C670.8 115.6 671.4 115.5 671.9 115.4C675.7 114.2 667.7 109.4 667.7 109.4C667.7 109.4 671.7 110.6 673.4 109.4C675.1 108.2 668.9 102.7 668.9 102.7C660.9 97.4 651.2 84.4 645.8 76.7C644.8 75.3 642.8 75.3 641.8 76.7C636.4 84.4 626.7 97.4 618.7 102.7C618.7 102.7 617.2 104.1 615.8 105.6L614 105.9C613.9 106.3 613.9 106.7 614.2 106.9C614.3 107 614.5 107.1 614.6 107.1C613.9 108.1 613.6 109 614.2 109.4C614.6 109.7 615.2 109.9 615.8 109.9C614.6 111.1 614 112.2 615.5 112.8C614.5 113.9 614.2 114.9 615.7 115.4C616.2 115.6 616.8 115.6 617.4 115.6C619.7 115.6 620.9 118.4 619.1 120C613.9 124.7 607 130.5 601.4 133.7C601.4 133.7 592.5 139.7 601.4 143.8C601.4 143.8 602 143.9 603 144.1C605.3 144.4 605.9 147.6 603.9 148.8C600.3 150.8 596.4 153.2 593.4 155.2C589 158.1 591.2 160 594.1 161.1C595.4 161.6 595.7 163.1 595.1 164.4C594.8 165.1 595 165.9 596.1 167C598.1 168.9 601.2 170.3 603.7 171.2C605.4 171.8 605.9 174 604.6 175.3C600.9 178.9 593.6 185 583 188.4C583 188.4 579.7 193.7 587.8 193.8C588.7 193.8 589.5 194.4 589.9 195.2C590.1 195.6 590.4 196 591 196.5C592.4 197.7 595.5 198.5 598.3 199.1C600.3 199.5 601 202.2 599.3 203.5C594.1 207.8 585.4 214.5 580.6 216.9C573.4 220.5 569.2 221.7 571.7 226C573.7 229.3 580.6 230 583.6 230.1C584.4 230.1 585.2 230.6 585.6 231.3C585.9 231.9 586.4 232.6 587 233.2C587.3 233.6 587.5 234 587.6 234.4C587.3 234.5 586.9 234.5 586.6 234.6C587 234.7 587.3 234.8 587.7 235C587.7 236.1 587 237.1 585.8 237.4C579.5 238.8 571.5 240.8 571 242.3C570.6 243.5 570.5 244.4 570.6 245.1C570.7 246 570.3 246.8 569.5 247.3C567.9 248.4 565.6 250.4 566.6 252.2C567.1 253 567.9 253.6 568.9 254C569.9 254.4 570.2 255.6 570 256.7C569.9 257.3 570 258.1 570.4 259.2C571.6 262 577.2 264.9 582.1 266.9C584.4 267.9 584 271.3 581.6 271.7C577.1 272.5 571.3 272.7 566.2 270.3C564.9 269.7 563.2 270.4 562.9 271.9C562.7 272.6 562.9 273.4 563.6 274.4C565.9 277.5 564.9 278.2 564.9 278.2C564.9 278.2 559.6 274.1 561.9 280.4C563.2 283.9 567.7 286.7 571.4 288.4C573 289.2 573.2 291.2 572 292.5C571.3 293.2 571 294.2 571.7 295.5C573.8 299.3 582.7 303.9 592.5 304.9C597.5 305.4 603.4 304.7 608 303.9C609.7 303.6 610.9 305.2 610.6 307C610.4 308 610.9 309 612.7 309.8C616.2 311.3 620 310 622.6 308.6C623.8 307.9 625.4 308.4 626 309.7C626.4 310.7 627.4 311.4 629.7 310.5C632.1 309.5 634.3 308.1 635.9 306.9V326.5C635.9 327 636.3 336.9 636.8 336.9L656.5 327.5C657 327.5 657.4 327.1 657.4 326.5V310.3C657.5 310.4 657.7 310.4 657.8 310.5C660 311.4 661 310.8 661.5 309.7C662.1 308.4 663.6 307.9 664.9 308.6C667.5 310 671.3 311.3 674.8 309.8C676.6 309 677.1 308 676.9 307C676.5 305.3 677.7 303.6 679.5 303.9C684.1 304.7 690 305.4 695 304.9C704.7 303.9 713.6 299.4 715.8 295.5C716.5 294.2 716.2 293.2 715.5 292.5C714.3 291.2 714.5 289.2 716.1 288.4C719.8 286.7 724.2 283.9 725.6 280.4C728 274.2 722.7 278.3 722.7 278.3Z" fill="#263238"/>
<path d="M608.3 322.3C608.3 322.3 607.3 321.6 609.5 318.8C610.2 317.9 610.3 317.1 610.2 316.5C609.9 315.2 608.4 314.5 607.2 315.1C602.5 317.3 597.2 317.1 593 316.4C590.8 316 590.4 312.9 592.6 312.1C597.1 310.3 602.3 307.7 603.4 305.2C603.8 304.2 603.9 303.5 603.8 303C603.6 302 603.9 301 604.8 300.6C605.7 300.2 606.5 299.7 606.9 299C607.8 297.4 605.7 295.6 604.2 294.6C603.5 294.2 603.1 293.4 603.2 292.6C603.3 292 603.2 291.1 602.8 290.1C602.3 288.7 595 286.9 589.1 285.7C587.4 285.3 586.8 283.2 588 281.9C588.6 281.3 589 280.7 589.3 280.2C589.7 279.5 590.4 279.1 591.2 279.1C594 279 600.4 278.5 602.2 275.4C604.5 271.5 600.6 270.4 594 267.2C590 265.2 583 260 578.2 256.2C579.1 256.2 579.9 256.1 580.8 256C579.3 254.9 577.9 253.8 576.7 252.8C576.5 252.6 576.3 252.4 576.2 252.2C576.5 251.6 577 251.2 577.8 251.1C580.4 250.6 583.3 249.9 584.5 248.8C585 248.3 585.4 248 585.5 247.6C585.9 246.9 586.6 246.3 587.4 246.3C594.9 246.2 591.9 241.4 591.9 241.4C582.1 238.4 575.4 232.9 572 229.6C570.8 228.4 571.3 226.4 572.8 225.9C575 225.1 577.9 223.9 579.8 222.1C580.9 221.1 581 220.4 580.7 219.8C580.1 218.7 580.4 217.3 581.6 216.8C584.3 215.8 586.4 214.1 582.3 211.5C579.5 209.7 575.9 207.6 572.6 205.8C570.7 204.7 571.3 201.9 573.4 201.6C574.3 201.5 574.9 201.4 574.9 201.4C579 199.5 579 197.3 578 195.4C578.1 194.7 577.9 194 577.6 193.4C577.5 193.7 577.3 194 577.1 194.2C576.1 193 574.9 192.3 574.9 192.3C569.8 189.4 563.4 184.2 558.6 180C557 178.6 558.1 176 560.2 176.1C560.8 176.1 561.3 176 561.8 175.9C565.3 174.8 557.9 170.5 557.9 170.5C557.9 170.5 561.6 171.6 563.2 170.5C564.8 169.4 559.1 164.4 559.1 164.4C551.7 159.6 542.7 147.9 537.7 140.9C536.8 139.6 535 139.6 534.1 140.9C529.1 147.9 520.2 159.6 512.7 164.4C512.7 164.4 511.3 165.6 510.1 167L508.4 167.2C508.3 167.6 508.3 167.9 508.6 168.1C508.7 168.2 508.9 168.2 509 168.3C508.4 169.2 508.1 170 508.6 170.4C509 170.7 509.5 170.8 510.1 170.9C509 171.9 508.5 173 509.8 173.5C508.9 174.5 508.6 175.4 510 175.9C510.5 176 511 176.1 511.6 176.1C513.7 176.1 514.8 178.6 513.2 180C508.4 184.2 502 189.5 496.9 192.3C496.9 192.3 488.7 197.7 496.9 201.4C496.9 201.4 497.5 201.5 498.4 201.6C500.5 201.9 501.1 204.8 499.2 205.8C495.9 207.6 492.3 209.7 489.5 211.5C485.4 214.1 487.5 215.8 490.2 216.8C491.4 217.2 491.7 218.6 491.1 219.8C490.8 220.4 491 221.1 492 222.1C493.9 223.8 496.7 225.1 499 225.9C500.6 226.5 501 228.5 499.8 229.6C496.4 232.9 489.7 238.3 479.9 241.4C479.9 241.4 476.9 246.2 484.4 246.3C485.2 246.3 485.9 246.9 486.3 247.6C486.5 247.9 486.8 248.3 487.3 248.8C488.6 249.9 491.4 250.6 494 251.1C495.9 251.5 496.5 253.9 495 255.1C490.2 258.9 482.2 265.1 477.7 267.2C471 270.5 467.1 271.5 469.5 275.4C471.3 278.4 477.7 279 480.5 279.1C481.3 279.1 482 279.5 482.4 280.2C482.7 280.7 483.1 281.3 483.7 281.9C484 282.2 484.2 282.6 484.3 283C484 283.1 483.7 283.1 483.3 283.2C483.6 283.3 484 283.4 484.3 283.5C484.3 284.5 483.6 285.4 482.5 285.6C476.6 286.8 469.3 288.6 468.8 290C468.4 291.1 468.4 291.9 468.4 292.5C468.5 293.3 468.1 294 467.4 294.5C465.9 295.5 463.8 297.3 464.7 298.9C465.1 299.6 465.9 300.2 466.8 300.5C467.7 300.9 468 301.9 467.8 302.9C467.7 303.4 467.8 304.2 468.2 305.1C469.3 307.6 474.5 310.2 479 312C481.1 312.9 480.8 315.9 478.6 316.3C474.4 317 469.1 317.2 464.4 315C463.2 314.4 461.6 315.1 461.4 316.4C461.3 317 461.4 317.8 462.1 318.7C464.3 321.5 463.3 322.2 463.3 322.2C463.3 322.2 458.4 318.5 460.6 324.2C461.8 327.4 466 329.9 469.3 331.4C470.8 332.1 471 333.9 469.9 335.1C469.2 335.8 469 336.7 469.6 337.8C471.6 341.3 479.8 345.4 488.8 346.3C493.4 346.7 498.9 346.1 503.1 345.4C504.7 345.1 505.8 346.6 505.5 348.2C505.3 349.1 505.8 350 507.5 350.7C510.8 352.1 514.3 350.9 516.7 349.6C517.8 349 519.3 349.4 519.8 350.6C520.2 351.5 521.1 352.1 523.2 351.3C525.4 350.4 527.4 349.1 528.9 348V365.7C528.9 366.2 529.3 366.6 529.8 366.6H547.9C548.4 366.6 548.8 366.2 548.8 365.7V351.1C548.9 351.2 549.1 351.2 549.2 351.3C551.2 352.1 552.2 351.5 552.6 350.6C553.1 349.4 554.6 349 555.7 349.6C558.1 350.9 561.6 352.1 564.9 350.7C566.6 350 567.1 349.1 566.9 348.2C566.5 346.6 567.7 345.2 569.3 345.4C573.5 346.1 579 346.8 583.6 346.3C592.6 345.4 600.8 341.3 602.8 337.8C603.5 336.6 603.2 335.8 602.5 335.1C601.4 333.9 601.6 332.1 603.1 331.4C606.5 329.8 610.6 327.3 611.8 324.2C613.2 318.6 608.3 322.3 608.3 322.3Z" fill="#263238"/>
<path d="M485.3 401.9C485.3 401.9 484.7 401.5 486 399.9C486.4 399.4 486.5 398.9 486.4 398.6C486.2 397.8 485.3 397.4 484.6 397.8C481.9 399.1 478.8 399 476.4 398.6C475.1 398.4 474.9 396.6 476.1 396.1C478.7 395.1 481.7 393.6 482.3 392.1C482.5 391.5 482.6 391.1 482.5 390.8C482.4 390.2 482.6 389.6 483.1 389.4C483.6 389.2 484.1 388.9 484.3 388.5C484.8 387.6 483.6 386.6 482.8 386C482.4 385.7 482.2 385.3 482.2 384.9C482.2 384.5 482.2 384.1 482 383.5C481.7 382.7 477.5 381.7 474.1 380.9C473.1 380.7 472.8 379.5 473.5 378.7C473.8 378.3 474.1 378 474.2 377.7C474.4 377.3 474.8 377.1 475.3 377.1C476.9 377 480.6 376.7 481.6 375C483 372.8 480.7 372.1 476.9 370.3C474.6 369.2 470.6 366.2 467.8 364C468.3 364 468.8 363.9 469.3 363.9C468.4 363.2 467.6 362.6 466.9 362.1C466.8 362 466.7 361.9 466.6 361.8C466.8 361.5 467.1 361.2 467.5 361.1C469 360.8 470.6 360.4 471.4 359.8C471.7 359.5 471.9 359.3 472 359.1C472.2 358.7 472.6 358.4 473.1 358.4C477.4 358.3 475.7 355.6 475.7 355.6C470.1 353.9 466.2 350.7 464.2 348.8C463.5 348.1 463.8 347 464.7 346.6C466 346.2 467.6 345.4 468.7 344.4C469.3 343.8 469.4 343.4 469.2 343.1C468.9 342.4 469.1 341.7 469.7 341.4C471.3 340.8 472.5 339.8 470.1 338.3C468.5 337.3 466.4 336.1 464.5 335C463.4 334.4 463.7 332.8 465 332.6C465.5 332.5 465.9 332.5 465.9 332.5C468.3 331.4 468.3 330.1 467.7 329.1C467.7 328.7 467.6 328.3 467.5 327.9C467.4 328.1 467.3 328.2 467.2 328.4C466.6 327.7 465.9 327.3 465.9 327.3C463 325.6 459.3 322.6 456.5 320.2C455.6 319.4 456.2 317.9 457.4 317.9C457.7 317.9 458 317.9 458.3 317.8C460.3 317.2 456 314.7 456 314.7C456 314.7 458.1 315.3 459 314.7C459.9 314.1 456.6 311.2 456.6 311.2C452.3 308.4 447.2 301.7 444.3 297.7C443.8 297 442.7 297 442.2 297.7C439.3 301.7 434.2 308.4 429.9 311.2C429.9 311.2 429.1 311.9 428.4 312.7L427.4 312.8C427.3 313 427.4 313.2 427.5 313.3C427.6 313.3 427.6 313.4 427.7 313.4C427.3 313.9 427.2 314.4 427.5 314.6C427.7 314.8 428 314.8 428.4 314.9C427.8 315.5 427.5 316.1 428.2 316.4C427.7 317 427.5 317.5 428.3 317.8C428.6 317.9 428.9 317.9 429.2 317.9C430.4 317.9 431 319.4 430.1 320.2C427.3 322.6 423.7 325.6 420.7 327.3C420.7 327.3 416 330.4 420.7 332.5C420.7 332.5 421 332.6 421.6 332.6C422.8 332.8 423.1 334.4 422.1 335C420.2 336.1 418.1 337.3 416.5 338.3C414.1 339.8 415.3 340.8 416.9 341.4C417.6 341.7 417.8 342.5 417.4 343.1C417.2 343.4 417.3 343.9 417.9 344.4C419 345.4 420.6 346.1 421.9 346.6C422.8 346.9 423.1 348.1 422.4 348.8C420.4 350.7 416.6 353.8 410.9 355.6C410.9 355.6 409.2 358.4 413.5 358.4C414 358.4 414.4 358.7 414.6 359.1C414.7 359.3 414.9 359.5 415.2 359.8C415.9 360.4 417.6 360.9 419.1 361.1C420.2 361.3 420.5 362.7 419.7 363.4C416.9 365.6 412.3 369.1 409.8 370.4C406 372.3 403.7 372.9 405.1 375.1C406.1 376.8 409.8 377.2 411.4 377.2C411.8 377.2 412.2 377.5 412.5 377.8C412.7 378.1 412.9 378.5 413.2 378.8C413.4 379 413.5 379.2 413.5 379.4C413.3 379.4 413.1 379.5 413 379.5C413.2 379.6 413.4 379.6 413.6 379.7C413.6 380.3 413.2 380.8 412.6 380.9C409.2 381.6 405 382.6 404.7 383.5C404.5 384.1 404.5 384.6 404.5 384.9C404.6 385.4 404.3 385.8 403.9 386C403 386.6 401.8 387.6 402.4 388.5C402.6 388.9 403.1 389.2 403.6 389.4C404.1 389.6 404.3 390.2 404.2 390.8C404.1 391.1 404.2 391.5 404.4 392.1C405 393.6 408 395 410.6 396.1C411.8 396.6 411.6 398.4 410.3 398.6C407.9 399 404.8 399.1 402.1 397.8C401.4 397.5 400.5 397.9 400.3 398.6C400.2 399 400.3 399.4 400.7 399.9C401.9 401.5 401.4 401.9 401.4 401.9C401.4 401.9 398.6 399.8 399.8 403C400.5 404.8 402.9 406.3 404.8 407.2C405.6 407.6 405.8 408.7 405.1 409.3C404.7 409.7 404.6 410.2 404.9 410.9C406 412.9 410.8 415.3 415.9 415.8C418.6 416.1 421.7 415.7 424.1 415.3C425 415.1 425.7 416 425.5 416.9C425.4 417.4 425.6 417.9 426.6 418.3C428.5 419.1 430.5 418.4 431.9 417.7C432.6 417.4 433.4 417.6 433.7 418.3C433.9 418.8 434.5 419.2 435.6 418.7C436.9 418.2 438 417.5 438.9 416.8V427C438.9 427.3 439.1 427.5 439.4 427.5H449.8C450.1 427.5 450.3 427.3 450.3 427V418.6C450.4 418.6 450.5 418.7 450.5 418.7C451.7 419.2 452.2 418.8 452.4 418.3C452.7 417.6 453.5 417.4 454.2 417.7C455.6 418.4 457.6 419.1 459.5 418.3C460.5 417.9 460.7 417.4 460.6 416.9C460.4 416 461 415.2 462 415.3C464.4 415.7 467.6 416.1 470.2 415.8C475.4 415.3 480.1 412.9 481.2 410.9C481.6 410.2 481.4 409.7 481 409.3C480.3 408.6 480.5 407.6 481.3 407.2C483.2 406.3 485.6 404.9 486.3 403C488.1 399.8 485.3 401.9 485.3 401.9Z" fill="#263238"/>
<path d="M202 400.8C200.1 338.8 187.2 334.3 187.2 334.3C196.7 360.1 190.2 400.8 190.2 400.8H202Z" fill="#263238"/>
<path d="M206.2 400.8C207.6 357.1 216.6 354 216.6 354C209.9 372.2 214.5 400.8 214.5 400.8H206.2Z" fill="#263238"/>
<path d="M213.2 400.8C214.1 371.7 220.1 369.6 220.1 369.6C215.6 381.7 218.7 400.8 218.7 400.8H213.2Z" fill="#263238"/>
<path d="M193.4 400.8C192.5 370.4 186.2 368.3 186.2 368.3C190.9 380.9 187.7 400.8 187.7 400.8H193.4Z" fill="#263238"/>
<path d="M200.2 400.8C201.5 329.3 209.8 324.2 209.8 324.2C203.6 353.9 207.9 400.8 207.9 400.8H200.2Z" fill="#263238"/>
<path d="M240.6 419.5C238.6 365.7 225.2 361.8 225.2 361.8C235.1 384.2 228.3 419.5 228.3 419.5H240.6Z" fill="#263238"/>
<path d="M238.1 405.5C239.5 367.6 248.9 364.9 248.9 364.9C241.9 380.7 246.7 405.5 246.7 405.5H238.1Z" fill="#263238"/>
<path d="M246.7 401.5C247.6 376.3 253.9 374.5 253.9 374.5C249.2 385 252.4 401.5 252.4 401.5H246.7Z" fill="#263238"/>
<path d="M224.7 400.8C223.7 374.5 217.2 372.6 217.2 372.6C222.1 383.6 218.7 400.8 218.7 400.8H224.7Z" fill="#263238"/>
<path d="M230.4 400.8C229.1 365.1 220.2 362.5 220.2 362.5C226.8 377.4 222.3 400.8 222.3 400.8H230.4Z" fill="#263238"/>
<path d="M233.5 412.7C234.8 350.7 243.5 346.2 243.5 346.2C237 372 241.5 412.7 241.5 412.7H233.5Z" fill="#263238"/>
<path d="M275 406.4C271.9 378.6 278.2 375 278.2 375C275 387.6 281.1 405 281.1 405L275 406.4Z" fill="#263238"/>
<path d="M256.6 405.2C257.7 356.1 265.2 352.6 265.2 352.6C259.6 373 263.5 405.2 263.5 405.2H256.6Z" fill="#263238"/>
<path d="M259.3 400.8C258.6 381.9 253.9 380.5 253.9 380.5C257.4 388.4 255 400.8 255 400.8H259.3Z" fill="#263238"/>
<path d="M263.6 408.6C264.9 368.8 273.6 365.9 273.6 365.9C261.8 385.5 269.2 409.9 271.6 408.6H263.6Z" fill="#263238"/>
<path d="M292.4 437.2C290.5 375.2 277.6 370.7 277.6 370.7C287.1 396.5 280.6 437.2 280.6 437.2H292.4Z" fill="#263238"/>
<path d="M290.5 396.1C289.6 365.7 283.3 363.6 283.3 363.6C288 376.2 284.8 396.1 284.8 396.1H290.5Z" fill="#263238"/>
<path d="M286.9 431.7C288.2 360.2 296.5 355.1 296.5 355.1C290.3 384.8 294.6 431.7 294.6 431.7H286.9Z" fill="#263238"/>
<path d="M299.4 401.7C300.3 376.5 306.6 374.7 306.6 374.7C301.9 385.2 305.1 401.7 305.1 401.7H299.4Z" fill="#263238"/>
<path d="M273.8 401.7C272.8 375.4 266.3 373.5 266.3 373.5C271.2 384.5 267.8 401.7 267.8 401.7H273.8Z" fill="#263238"/>
<path d="M314.7 400.1C323.4 373.5 330.6 372.9 330.6 372.9C322.4 383.1 320.8 401.3 320.8 401.3L314.7 400.1Z" fill="#263238"/>
<path d="M308.4 401.7C307.7 382.8 303 381.4 303 381.4C306.5 389.3 304.1 401.7 304.1 401.7H308.4Z" fill="#263238"/>
<path d="M-0.5 318.2C-0.5 318.2 209.6 407.8 362.9 394.8C516.2 381.9 726.3 298.4 726.3 298.4V453.4H-0.5V318.2Z" fill="#263238"/>
<path d="M6.8 322.8L32.1 332V319.9C32.3 320 32.4 320 32.6 320.1C35.2 321.2 36.4 320.4 36.9 319.2C37.6 317.7 39.4 317.1 40.9 317.9C44 319.5 48.4 321.1 52.6 319.3C54.8 318.4 55.3 317.3 55.1 316.1C54.7 314.1 56.1 312.2 58.1 312.6C63.5 313.5 70.4 314.3 76.3 313.8C87.8 312.7 98.2 307.4 100.7 303C101.5 301.5 101.2 300.4 100.3 299.5C98.8 298 99.1 295.7 101 294.8C105.3 292.8 110.6 289.6 112.1 285.6C114.8 278.4 108.6 283.1 108.6 283.1C108.6 283.1 107.4 282.3 110.1 278.7C111 277.6 111.1 276.6 111 275.8C110.6 274.1 108.7 273.2 107.1 274C101.2 276.8 94.3 276.6 89 275.7C86.1 275.2 85.7 271.3 88.4 270.2C94.1 267.9 100.7 264.6 102.1 261.4C102.6 260.2 102.7 259.2 102.6 258.6C102.3 257.4 102.7 256 103.9 255.5C105.1 255 106.1 254.3 106.6 253.4C107.8 251.4 105.1 249.1 103.2 247.8C102.4 247.2 101.8 246.3 102 245.3C102.1 244.5 102 243.4 101.5 242.1C100.8 240.3 91.5 238 84 236.4C81.8 235.9 81 233.3 82.6 231.6C83.3 230.8 83.8 230 84.2 229.4C84.7 228.5 85.6 228 86.6 228C90.2 227.9 98.3 227.2 100.6 223.3C103.6 218.3 98.6 216.9 90.1 212.8C85 210.3 76.1 203.7 69.9 198.8C71 198.8 72.1 198.7 73.2 198.5C71.3 197 69.5 195.6 68 194.4C67.7 194.2 67.5 194 67.4 193.7C67.8 193 68.5 192.4 69.4 192.3C72.7 191.7 76.4 190.7 78 189.4C78.7 188.8 79.1 188.3 79.3 187.9C79.8 186.9 80.7 186.3 81.8 186.2C91.4 186.1 87.5 180 87.5 180C75 176.1 66.4 169.2 62.1 165C60.6 163.5 61.1 160.9 63.2 160.2C66 159.2 69.7 157.6 72.1 155.4C73.4 154.2 73.6 153.2 73.3 152.4C72.6 151 73 149.2 74.5 148.6C77.9 147.3 80.6 145.1 75.4 141.8C71.8 139.5 67.2 136.8 63 134.5C60.6 133.2 61.3 129.5 64 129.1C65.2 128.9 65.9 128.8 65.9 128.8C71.2 126.4 71.1 123.5 69.8 121.2C69.9 120.3 69.7 119.4 69.3 118.6C69.1 119 68.9 119.3 68.7 119.6C67.4 118.1 65.9 117.1 65.9 117.1C59.4 113.4 51.3 106.8 45.1 101.4C43.1 99.6 44.4 96.3 47.1 96.4C47.8 96.4 48.5 96.3 49.1 96.1C53.6 94.7 44.1 89.2 44.1 89.2C44.1 89.2 48.8 90.6 50.8 89.2C52.8 87.8 45.6 81.5 45.6 81.5C36.1 75.4 24.8 60.4 18.4 51.6C17.3 50 14.9 50 13.8 51.6C10.2 56.6 5.1 63.5 -0.5 69.6V320.2C2.3 319.1 4.9 317.4 6.8 316V322.8Z" fill="#263238"/>
<path d="M294.3 408.1C294 408.2 293.2 405.9 292.9 402C292.7 400.1 292.7 397.8 292.8 395.2C293 392.6 293.3 389.8 293.9 386.9C294.6 384 295.4 381.3 296.4 378.9C297.4 376.5 298.4 374.4 299.4 372.8C301.4 369.5 303 367.7 303.3 367.9C304 368.3 298.9 376.3 296.5 387.5C293.8 398.6 295 408.1 294.3 408.1Z" fill="#263238"/>
<path d="M313.3 418.5C313 418.6 312.2 416.1 311.8 412C311.7 411 311.7 409.8 311.7 408.6C311.7 407.3 311.8 406.2 311.7 404.9C311.6 402.3 311.1 399.4 311 396.2C310.7 390 311 384.3 311.6 380.2C312.2 376.1 312.9 373.7 313.2 373.7C313.9 373.8 312.9 383.8 313.6 396C313.7 399 314.1 401.9 314.1 404.7C314.1 406.1 314 407.5 313.9 408.6C313.8 409.8 313.8 410.8 313.7 411.8C313.5 415.9 313.7 418.4 313.3 418.5Z" fill="#263238"/>
<path d="M309.3 369.8C310 369.8 310.6 376.6 310.6 385.1C310.6 393.5 310 400.4 309.3 400.4C308.6 400.4 308 393.6 308 385.1C308 376.7 308.6 369.8 309.3 369.8Z" fill="#263238"/>
<path d="M317.8 385.1C318.5 385.1 318.9 388.3 318 392C317.1 395.7 315.3 398.3 314.6 398C313.9 397.7 314.6 394.8 315.4 391.4C316.4 388 317.1 385.1 317.8 385.1Z" fill="#263238"/>
<path d="M242.1 371.8C242.8 372.1 241.3 376.8 240.8 382.7C240.2 388.6 240.6 393.5 239.9 393.7C239.6 393.8 239 392.6 238.6 390.5C238.2 388.5 238 385.6 238.3 382.4C238.6 379.2 239.4 376.4 240.3 374.5C241 372.7 241.8 371.6 242.1 371.8Z" fill="#263238"/>
<path d="M325.9 400.4L337.4 380.5L360.5 371.9L378.9 380.7L390.5 391.8L325.9 400.4Z" fill="#263238"/>
<path opacity="0.3" d="M390.5 391.8C394.2 394.1 407 400.1 407.3 401.4C407.1 400.3 403.7 389.4 403.7 389.4L390.5 391.8Z" fill="#FF725E"/>
<path opacity="0.3" d="M481.4 375.1L572.9 386.8C571.3 386.1 520.3 365.2 520.3 365.2L481.4 375.1Z" fill="#FF725E"/>
<path opacity="0.3" d="M581.2 348L663.3 348.9C661.8 348.4 637.6 330.7 637.6 330.7L581.2 348Z" fill="#FF725E"/>
<path opacity="0.3" d="M321.7 395.9L323.9 408.1L329.5 396.2L321.7 395.9Z" fill="#FF725E"/>
<path opacity="0.3" d="M294.4 394.5L291.7 408.7L299.8 395L294.4 394.5Z" fill="#FF725E"/>
<path opacity="0.3" d="M687.3 313.2L714.9 318.1C714.9 318.1 724.9 298.9 724.3 299.2C723.7 299.4 687.3 313.2 687.3 313.2Z" fill="#FF725E"/>
<path opacity="0.3" d="M153.9 369.4L112.9 396.2L184.4 377.1L153.9 369.4Z" fill="#FF725E"/>
<path opacity="0.3" d="M87 350.1L49.9 371.8L134 364.4L87 350.1Z" fill="#FF725E"/>
</g>
<defs>
<clipPath id="clip0_81_2746">
<rect width="726" height="453" rx="12" fill="white"/>
</clipPath>
</defs>
</svg>
